<?xml version="1.0" encoding="UTF-8" standalone="no"?>
<!-- Created with Inkscape (http://www.inkscape.org/) -->

<svg
   xmlns:dc="http://purl.org/dc/elements/1.1/"
   xmlns:cc="http://creativecommons.org/ns#"
   xmlns:rdf="http://www.w3.org/1999/02/22-rdf-syntax-ns#"
   xmlns:svg="http://www.w3.org/2000/svg"
   xmlns="http://www.w3.org/2000/svg"
   xmlns:xlink="http://www.w3.org/1999/xlink"
   xmlns:sodipodi="http://sodipodi.sourceforge.net/DTD/sodipodi-0.dtd"
   xmlns:inkscape="http://www.inkscape.org/namespaces/inkscape"
   width="1920"
   height="1200"
   id="svg2"
   version="1.1"
   inkscape:version="0.47 r22583"
   sodipodi:docname="aptosid-imera-wide.svg"
   inkscape:export-filename="aptosid-imera-wide.png"
   inkscape:export-xdpi="90"
   inkscape:export-ydpi="90"
   style="display:inline">
  <defs
     id="defs4">
    <linearGradient
       id="linearGradient4671">
      <stop
         style="stop-color:#ffffff;stop-opacity:1;"
         offset="0"
         id="stop4673" />
      <stop
         style="stop-color:#646464;stop-opacity:1;"
         offset="1"
         id="stop4675" />
    </linearGradient>
    <linearGradient
       id="linearGradient4663">
      <stop
         style="stop-color:#ffffff;stop-opacity:1;"
         offset="0"
         id="stop4665" />
      <stop
         style="stop-color:#646464;stop-opacity:1;"
         offset="1"
         id="stop4667" />
    </linearGradient>
    <linearGradient
       id="linearGradient6426">
      <stop
         style="stop-color:#c80000;stop-opacity:1;"
         offset="0"
         id="stop6428" />
      <stop
         style="stop-color:#640000;stop-opacity:1;"
         offset="1"
         id="stop6430" />
    </linearGradient>
    <radialGradient
       inkscape:collect="always"
       xlink:href="#linearGradient6426"
       id="radialGradient6910"
       gradientUnits="userSpaceOnUse"
       gradientTransform="matrix(2.0585115,0,0,1.2895833,-1016.1711,-130.99655)"
       cx="716.10352"
       cy="810.61743"
       fx="716.10352"
       fy="810.61743"
       r="959.99999" />
    <filter
       inkscape:collect="always"
       id="filter4330">
      <feGaussianBlur
         inkscape:collect="always"
         stdDeviation="2.1154182"
         id="feGaussianBlur4332" />
    </filter>
    <filter
       inkscape:collect="always"
       id="filter4659">
      <feGaussianBlur
         inkscape:collect="always"
         stdDeviation="2.8617812"
         id="feGaussianBlur4661" />
    </filter>
    <radialGradient
       inkscape:collect="always"
       xlink:href="#linearGradient4663"
       id="radialGradient4669"
       cx="501.48392"
       cy="1905.0011"
       fx="501.48392"
       fy="1905.0011"
       r="499.64153"
       gradientTransform="matrix(6.3034859,0,0,0.284407,-2829.49,1012.7641)"
       gradientUnits="userSpaceOnUse" />
    <radialGradient
       inkscape:collect="always"
       xlink:href="#linearGradient4671"
       id="radialGradient4677"
       cx="817.00006"
       cy="1136.282"
       fx="817.00006"
       fy="1136.282"
       r="102.08712"
       gradientTransform="matrix(1.9731017,0,0,2.1944827,-780.48,-1409.561)"
       gradientUnits="userSpaceOnUse" />
    <filter
       inkscape:collect="always"
       id="filter4685">
      <feGaussianBlur
         inkscape:collect="always"
         stdDeviation="6.3462547"
         id="feGaussianBlur4687" />
    </filter>
    <filter
       inkscape:collect="always"
       id="filter4715"
       x="-0.027487004"
       width="1.054974"
       y="-0.18918478"
       height="1.3783696">
      <feGaussianBlur
         inkscape:collect="always"
         stdDeviation="11.463764"
         id="feGaussianBlur4717" />
    </filter>
    <filter
       inkscape:collect="always"
       id="filter4727">
      <feGaussianBlur
         inkscape:collect="always"
         stdDeviation="1.4329705"
         id="feGaussianBlur4729" />
    </filter>
    <filter
       inkscape:collect="always"
       id="filter4731">
      <feGaussianBlur
         inkscape:collect="always"
         stdDeviation="1.4329705"
         id="feGaussianBlur4733" />
    </filter>
    <radialGradient
       inkscape:collect="always"
       xlink:href="#linearGradient4663"
       id="radialGradient3329"
       gradientUnits="userSpaceOnUse"
       gradientTransform="matrix(6.3034859,0,0,0.284407,-2829.49,1012.7641)"
       cx="501.48392"
       cy="1905.0011"
       fx="501.48392"
       fy="1905.0011"
       r="499.64153" />
    <radialGradient
       inkscape:collect="always"
       xlink:href="#linearGradient4663"
       id="radialGradient3331"
       gradientUnits="userSpaceOnUse"
       gradientTransform="matrix(6.3034859,0,0,0.284407,-2829.49,1012.7641)"
       cx="501.48392"
       cy="1905.0011"
       fx="501.48392"
       fy="1905.0011"
       r="499.64153" />
    <radialGradient
       inkscape:collect="always"
       xlink:href="#linearGradient4663"
       id="radialGradient3333"
       gradientUnits="userSpaceOnUse"
       gradientTransform="matrix(6.3034859,0,0,0.284407,-2829.49,1012.7641)"
       cx="501.48392"
       cy="1905.0011"
       fx="501.48392"
       fy="1905.0011"
       r="499.64153" />
    <radialGradient
       inkscape:collect="always"
       xlink:href="#linearGradient4663"
       id="radialGradient3335"
       gradientUnits="userSpaceOnUse"
       gradientTransform="matrix(6.3034859,0,0,0.284407,-2829.49,1012.7641)"
       cx="501.48392"
       cy="1905.0011"
       fx="501.48392"
       fy="1905.0011"
       r="499.64153" />
    <radialGradient
       inkscape:collect="always"
       xlink:href="#linearGradient4663"
       id="radialGradient3337"
       gradientUnits="userSpaceOnUse"
       gradientTransform="matrix(6.3034859,0,0,0.284407,-2829.49,1012.7641)"
       cx="501.48392"
       cy="1905.0011"
       fx="501.48392"
       fy="1905.0011"
       r="499.64153" />
    <radialGradient
       inkscape:collect="always"
       xlink:href="#linearGradient4663"
       id="radialGradient3339"
       gradientUnits="userSpaceOnUse"
       gradientTransform="matrix(6.3034859,0,0,0.284407,-2829.49,1012.7641)"
       cx="501.48392"
       cy="1905.0011"
       fx="501.48392"
       fy="1905.0011"
       r="499.64153" />
    <radialGradient
       inkscape:collect="always"
       xlink:href="#linearGradient4663"
       id="radialGradient3341"
       gradientUnits="userSpaceOnUse"
       gradientTransform="matrix(6.3034859,0,0,0.284407,-2829.49,1012.7641)"
       cx="501.48392"
       cy="1905.0011"
       fx="501.48392"
       fy="1905.0011"
       r="499.64153" />
  </defs>
  <sodipodi:namedview
     id="base"
     pagecolor="#000000"
     bordercolor="#666666"
     borderopacity="1.0"
     inkscape:pageopacity="1"
     inkscape:pageshadow="2"
     inkscape:zoom="0.5"
     inkscape:cx="934.7486"
     inkscape:cy="572.10759"
     inkscape:document-units="px"
     inkscape:current-layer="layer2"
     showgrid="false"
     borderlayer="true"
     inkscape:window-width="1912"
     inkscape:window-height="1153"
     inkscape:window-x="0"
     inkscape:window-y="0"
     inkscape:window-maximized="1" />
  <metadata
     id="metadata7">
    <rdf:RDF>
      <cc:Work
         rdf:about="">
        <dc:format>image/svg+xml</dc:format>
        <dc:type
           rdf:resource="http://purl.org/dc/dcmitype/StillImage" />
        <dc:title />
      </cc:Work>
    </rdf:RDF>
  </metadata>
  <g
     inkscape:groupmode="layer"
     id="layer2"
     inkscape:label="Background"
     style="display:inline">
    <rect
       style="fill:url(#radialGradient6910);fill-opacity:1;stroke:none"
       id="rect2817"
       width="1919.499"
       height="1199.499"
       x="0.25047493"
       y="-147.38737"
       transform="translate(0,147.63782)" />
  </g>
  <g
     inkscape:groupmode="layer"
     id="layer5"
     inkscape:label="Text"
     style="display:inline">
    <g
       style="fill:none;stroke:#000000;stroke-width:3.32786489;stroke-miterlimit:4;stroke-opacity:1;stroke-dasharray:none;display:inline;filter:url(#filter4715)"
       transform="matrix(0.90147892,0,0,0.90147892,901.16481,-307.43211)"
       id="g4689"
       inkscape:label="black blur"
       inkscape:export-filename="./path4328.png"
       inkscape:export-xdpi="90"
       inkscape:export-ydpi="90">
      <text
         xml:space="preserve"
         style="font-size:144px;font-style:normal;font-variant:normal;font-weight:bold;font-stretch:normal;text-align:start;line-height:125%;letter-spacing:0px;word-spacing:0px;writing-mode:lr-tb;text-anchor:start;fill:none;stroke:#000000;stroke-width:3.32786489;stroke-miterlimit:4;stroke-opacity:1;stroke-dasharray:none;font-family:Dustismo;-inkscape-font-specification:Dustismo Bold"
         x="246.53732"
         y="1555.3855"
         id="text4691"
         sodipodi:linespacing="125%"
         inkscape:export-filename="logo-current.png"
         inkscape:export-xdpi="90"
         inkscape:export-ydpi="90"><tspan
           sodipodi:role="line"
           id="tspan4693"
           x="246.53732"
           y="1555.3855"
           dx="0 0 26.252148"><tspan
             dx="-0.98228282 -4.3535538 121.26881"
             style="font-size:144px;font-style:normal;font-variant:normal;font-weight:bold;font-stretch:normal;text-align:start;line-height:125%;writing-mode:lr-tb;text-anchor:start;fill:none;stroke:#000000;stroke-width:3.32786489;stroke-miterlimit:4;stroke-opacity:1;stroke-dasharray:none;font-family:Dustismo;-inkscape-font-specification:Dustismo Bold"
             id="tspan4695">to  <tspan
   style="font-weight:normal;fill:none;stroke:#000000;stroke-width:3.32786489;stroke-miterlimit:4;stroke-opacity:1;stroke-dasharray:none;-inkscape-font-specification:Dustismo"
   id="tspan4697">Ἡμέρα</tspan></tspan></tspan></text>
      <path
         sodipodi:nodetypes="ccccc"
         inkscape:connector-curvature="0"
         id="path4699"
         d="m 448.25844,1456.6341 9.895,9.894 -9.895,9.895 -9.894,-9.895 z"
         style="fill:none;stroke:#000000;stroke-width:3.32786489;stroke-miterlimit:4;stroke-opacity:1;stroke-dasharray:none" />
      <path
         inkscape:export-ydpi="90"
         inkscape:export-xdpi="90"
         inkscape:export-filename="logo-current.png"
         sodipodi:nodetypes="cccccccccsccccscccscscs"
         inkscape:connector-curvature="0"
         id="path4701"
         d="m 207.94439,1485.6954 c -9.0469,10e-5 -16.51565,3.5156 -22.375,10.5 l 0,-9 -11.32858,0 0,83.875 -13.21875,0 0,11.5937 24.54733,0 0,-36.2812 c 5.85935,6.9844 13.3281,10.4687 22.375,10.4687 9.4687,0 17.54682,-3.5625 24.25,-10.6875 6.56243,-7.0313 9.84368,-15.2968 9.84375,-24.8125 -7e-5,-9.5155 -3.28132,-17.7968 -9.84375,-24.875 -6.70318,-7.1718 -14.7813,-10.7811 -24.25,-10.7812 z m 0,11.625 c 6.28121,0 11.62495,2.4531 16.03125,7.375 4.26557,4.7813 6.37494,10.3282 6.375,16.6562 -6e-5,6.2813 -2.15631,11.7969 -6.46875,16.5313 -4.45318,4.9219 -9.75004,7.375 -15.9375,7.375 -6.23441,0 -11.53128,-2.4531 -15.84375,-7.375 -4.12502,-4.6875 -6.18752,-10.2031 -6.1875,-16.5313 -2e-5,-6.3749 2.04685,-11.9218 6.125,-16.6562 4.31247,-4.9219 9.62497,-7.375 15.90625,-7.375 z"
         style="fill:none;stroke:#000000;stroke-width:3.32786489;stroke-miterlimit:4;stroke-opacity:1;stroke-dasharray:none" />
      <path
         inkscape:export-ydpi="90"
         inkscape:export-xdpi="90"
         inkscape:export-filename="logo-current.png"
         sodipodi:nodetypes="ccccccssscccccsscccscscs"
         inkscape:connector-curvature="0"
         id="path4703"
         d="m 508.45717,1459.9767 0,11.5937 13.25,0 0,24.625 c -5.5313,-6.9844 -12.89068,-10.4999 -22.125,-10.5 -9.51566,10e-5 -17.90627,3.5626 -25.125,10.6875 -7.17188,7.1251 -10.75,15.4532 -10.75,24.9687 0,9.5157 3.54687,17.8282 10.625,24.9063 7.0781,7.0781 15.35935,10.5937 24.875,10.5937 9.14058,0 16.64057,-3.4843 22.5,-10.4687 l 0,9 11.35225,0 0,-95.4062 z m -10.0625,37.3437 c 0.39002,-0.019 0.79199,0 1.1875,0 6.2812,0 11.53119,2.4531 15.75,7.375 4.03119,4.7344 6.03119,10.2813 6.03125,16.6562 -6e-5,6.3282 -2.07819,11.8594 -6.25,16.5938 -4.35943,4.875 -9.67192,7.3125 -15.90625,7.3125 -6.32815,0 -11.89065,-2.375 -16.71875,-7.1563 -4.78127,-4.8281 -7.18751,-10.4218 -7.1875,-16.75 -1e-5,-6.328 2.48435,-11.8906 7.40625,-16.7187 4.61423,-4.5704 9.83725,-7.0269 15.6875,-7.3125 z"
         style="fill:none;stroke:#000000;stroke-width:3.32786489;stroke-miterlimit:4;stroke-opacity:1;stroke-dasharray:none" />
      <path
         inkscape:export-ydpi="90"
         inkscape:export-xdpi="90"
         inkscape:export-filename="logo-current.png"
         sodipodi:nodetypes="ccscccsscscccsssscsaczsccc"
         d="m 414.17377,1509.6121 c -0.2813,-4.3126 -2.7422,-7.5235 -7.3829,-9.6328 -3.6093,-1.6407 -7.8749,-2.461 -12.7968,-2.461 -3.5625,0 -6.9844,0.6563 -10.2657,1.9688 -4.3124,1.6875 -6.4687,4.0078 -6.4687,6.9609 0,3.1406 2.4141,5.5547 7.2422,7.2422 3.0469,1.0781 7.0473,1.1402 14.8125,2.1078 15.0809,1.8793 25.2899,7.7759 25.5469,20.3922 0.1345,6.608 -3.2813,11.8359 -9.8438,15.6797 -5.4843,3.2343 -11.8125,4.8515 -18.9844,4.8515 -7.8749,0 -14.578,-1.5938 -20.1093,-4.7812 -6.4687,-3.7032 -10.2187,-9.1641 -11.25,-16.3828 l 11.3203,-2.3906 c 1.1719,5.1093 4.4297,8.6015 9.1524,10.1015 4.7226,1.5 8.0365,1.9757 11.7382,1.875 4.5938,-0.125 9.0781,-1.3672 11.6524,-2.836 2.7293,-1.5573 4.5495,-3.0879 4.6523,-5.6952 0.1829,-4.6371 -3.9067,-7.2691 -12.2504,-8.7691 -6.0938,-0.75 -12.519,-1.2319 -18.6168,-2.6919 -4.9423,-1.1833 -9.4489,-3.0019 -12.5859,-6.539 -2.874,-3.2406 -4.5703,-6.586 -4.5703,-12.1641 0,-5.6719 2.4141,-10.1484 7.8164,-14.1328 5.4024,-3.9844 12.7852,-6.3281 21.5039,-6.3281 7.8282,0 14.4844,1.5937 19.9688,4.7812 6.4218,3.75 10.1484,9.2109 11.1796,16.3828 l -11.4609,2.461"
         style="font-size:144px;font-style:normal;font-variant:normal;font-weight:bold;font-stretch:normal;text-align:start;line-height:125%;letter-spacing:0px;word-spacing:0px;writing-mode:lr-tb;text-anchor:start;fill:none;stroke:#000000;stroke-width:3.32786489;stroke-miterlimit:4;stroke-opacity:1;stroke-dasharray:none;font-family:Dustismo;-inkscape-font-specification:Dustismo Bold"
         id="path4705"
         inkscape:connector-curvature="0" />
      <path
         style="font-size:144px;font-style:normal;font-variant:normal;font-weight:bold;font-stretch:normal;text-align:center;line-height:125%;letter-spacing:0px;word-spacing:0px;writing-mode:lr-tb;text-anchor:middle;fill:none;stroke:#000000;stroke-width:3.32786489;stroke-miterlimit:4;stroke-opacity:1;stroke-dasharray:none;font-family:Dustismo;-inkscape-font-specification:Dustismo Bold"
         d="m 126.30444,1485.6954 c -9.51565,10e-5 -17.87502,3.5626 -25.09375,10.6875 -7.17188,7.1251 -10.78126,15.4219 -10.78125,24.9375 -1e-5,9.5156 3.54687,17.8281 10.625,24.9062 7.07811,7.0781 15.39059,10.625 24.90625,10.625 9.11103,0 16.58644,-3.4982 22.4375,-10.4375 l 0,8.9375 15.99556,0 0,-11.5937 -4.65625,0 0,-55.8125 -11.27681,0 0,8.2187 c -5.53131,-6.9843 -12.92192,-10.4686 -22.15625,-10.4687 z m 0,11.5937 c 6.28121,0 11.5312,2.4532 15.75,7.375 4.03119,4.7344 6.03118,10.2813 6.03125,16.6563 -7e-5,6.3281 -2.07818,11.8594 -6.25,16.5937 -4.35942,4.875 -9.64067,7.3125 -15.875,7.3125 -6.32816,0 -11.9219,-2.3749 -16.75,-7.1562 -4.78126,-4.8281 -7.15627,-10.4219 -7.15625,-16.75 -2e-5,-6.3281 2.45311,-11.8906 7.375,-16.7188 4.92185,-4.875 10.54684,-7.3125 16.875,-7.3125 z"
         id="path4707"
         inkscape:connector-curvature="0"
         sodipodi:nodetypes="ccssscccccccccscccscscs" />
      <path
         sodipodi:nodetypes="ccccccc"
         d="m 433.60678,1487.1824 20.32031,0 0,68.2031 -11.60156,0 0,-56.6016 -8.71875,0 0,-11.6015"
         style="font-size:144px;font-style:normal;font-variant:normal;font-weight:bold;font-stretch:normal;text-align:start;line-height:125%;letter-spacing:0px;word-spacing:0px;writing-mode:lr-tb;text-anchor:start;fill:none;stroke:#000000;stroke-width:3.32786489;stroke-miterlimit:4;stroke-opacity:1;stroke-dasharray:none;font-family:Dustismo;-inkscape-font-specification:Dustismo Bold"
         id="path4709"
         inkscape:connector-curvature="0" />
    </g>
    <g
       inkscape:label="black blur"
       id="g4503"
       transform="matrix(0.90147892,0,0,0.90147892,901.16481,-307.43211)"
       style="fill:none;stroke:#000000;stroke-width:3.32786489;stroke-miterlimit:4;stroke-opacity:1;stroke-dasharray:none;display:inline;filter:url(#filter4659)"
       inkscape:export-filename="./path4328.png"
       inkscape:export-xdpi="90"
       inkscape:export-ydpi="90">
      <text
         inkscape:export-ydpi="90"
         inkscape:export-xdpi="90"
         inkscape:export-filename="logo-current.png"
         sodipodi:linespacing="125%"
         id="text4505"
         y="1555.3855"
         x="246.53732"
         style="font-size:144px;font-style:normal;font-variant:normal;font-weight:bold;font-stretch:normal;text-align:start;line-height:125%;letter-spacing:0px;word-spacing:0px;writing-mode:lr-tb;text-anchor:start;fill:none;stroke:#000000;stroke-width:3.32786489;stroke-miterlimit:4;stroke-opacity:1;stroke-dasharray:none;font-family:Dustismo;-inkscape-font-specification:Dustismo Bold"
         xml:space="preserve"><tspan
           dx="0 0 26.252148"
           y="1555.3855"
           x="246.53732"
           id="tspan4507"
           sodipodi:role="line"><tspan
             id="tspan4509"
             style="font-size:144px;font-style:normal;font-variant:normal;font-weight:bold;font-stretch:normal;text-align:start;line-height:125%;writing-mode:lr-tb;text-anchor:start;fill:none;stroke:#000000;stroke-width:3.32786489;stroke-miterlimit:4;stroke-opacity:1;stroke-dasharray:none;font-family:Dustismo;-inkscape-font-specification:Dustismo Bold"
             dx="-0.98228282 -4.3535538 121.26881">to  <tspan
   id="tspan4511"
   style="font-weight:normal;fill:none;stroke:#000000;stroke-width:3.32786489;stroke-miterlimit:4;stroke-opacity:1;stroke-dasharray:none;-inkscape-font-specification:Dustismo">Ἡμέρα</tspan></tspan></tspan></text>
      <path
         style="fill:none;stroke:#000000;stroke-width:3.32786489;stroke-miterlimit:4;stroke-opacity:1;stroke-dasharray:none"
         d="m 448.25844,1456.6341 9.895,9.894 -9.895,9.895 -9.894,-9.895 z"
         id="path4513"
         inkscape:connector-curvature="0"
         sodipodi:nodetypes="ccccc" />
      <path
         style="fill:none;stroke:#000000;stroke-width:3.32786489;stroke-miterlimit:4;stroke-opacity:1;stroke-dasharray:none"
         d="m 207.94439,1485.6954 c -9.0469,10e-5 -16.51565,3.5156 -22.375,10.5 l 0,-9 -11.32858,0 0,83.875 -13.21875,0 0,11.5937 24.54733,0 0,-36.2812 c 5.85935,6.9844 13.3281,10.4687 22.375,10.4687 9.4687,0 17.54682,-3.5625 24.25,-10.6875 6.56243,-7.0313 9.84368,-15.2968 9.84375,-24.8125 -7e-5,-9.5155 -3.28132,-17.7968 -9.84375,-24.875 -6.70318,-7.1718 -14.7813,-10.7811 -24.25,-10.7812 z m 0,11.625 c 6.28121,0 11.62495,2.4531 16.03125,7.375 4.26557,4.7813 6.37494,10.3282 6.375,16.6562 -6e-5,6.2813 -2.15631,11.7969 -6.46875,16.5313 -4.45318,4.9219 -9.75004,7.375 -15.9375,7.375 -6.23441,0 -11.53128,-2.4531 -15.84375,-7.375 -4.12502,-4.6875 -6.18752,-10.2031 -6.1875,-16.5313 -2e-5,-6.3749 2.04685,-11.9218 6.125,-16.6562 4.31247,-4.9219 9.62497,-7.375 15.90625,-7.375 z"
         id="path4515"
         inkscape:connector-curvature="0"
         sodipodi:nodetypes="cccccccccsccccscccscscs"
         inkscape:export-filename="logo-current.png"
         inkscape:export-xdpi="90"
         inkscape:export-ydpi="90" />
      <path
         style="fill:none;stroke:#000000;stroke-width:3.32786489;stroke-miterlimit:4;stroke-opacity:1;stroke-dasharray:none"
         d="m 508.45717,1459.9767 0,11.5937 13.25,0 0,24.625 c -5.5313,-6.9844 -12.89068,-10.4999 -22.125,-10.5 -9.51566,10e-5 -17.90627,3.5626 -25.125,10.6875 -7.17188,7.1251 -10.75,15.4532 -10.75,24.9687 0,9.5157 3.54687,17.8282 10.625,24.9063 7.0781,7.0781 15.35935,10.5937 24.875,10.5937 9.14058,0 16.64057,-3.4843 22.5,-10.4687 l 0,9 11.35225,0 0,-95.4062 z m -10.0625,37.3437 c 0.39002,-0.019 0.79199,0 1.1875,0 6.2812,0 11.53119,2.4531 15.75,7.375 4.03119,4.7344 6.03119,10.2813 6.03125,16.6562 -6e-5,6.3282 -2.07819,11.8594 -6.25,16.5938 -4.35943,4.875 -9.67192,7.3125 -15.90625,7.3125 -6.32815,0 -11.89065,-2.375 -16.71875,-7.1563 -4.78127,-4.8281 -7.18751,-10.4218 -7.1875,-16.75 -1e-5,-6.328 2.48435,-11.8906 7.40625,-16.7187 4.61423,-4.5704 9.83725,-7.0269 15.6875,-7.3125 z"
         id="path4517"
         inkscape:connector-curvature="0"
         sodipodi:nodetypes="ccccccssscccccsscccscscs"
         inkscape:export-filename="logo-current.png"
         inkscape:export-xdpi="90"
         inkscape:export-ydpi="90" />
      <path
         inkscape:connector-curvature="0"
         id="path4519"
         style="font-size:144px;font-style:normal;font-variant:normal;font-weight:bold;font-stretch:normal;text-align:start;line-height:125%;letter-spacing:0px;word-spacing:0px;writing-mode:lr-tb;text-anchor:start;fill:none;stroke:#000000;stroke-width:3.32786489;stroke-miterlimit:4;stroke-opacity:1;stroke-dasharray:none;font-family:Dustismo;-inkscape-font-specification:Dustismo Bold"
         d="m 414.17377,1509.6121 c -0.2813,-4.3126 -2.7422,-7.5235 -7.3829,-9.6328 -3.6093,-1.6407 -7.8749,-2.461 -12.7968,-2.461 -3.5625,0 -6.9844,0.6563 -10.2657,1.9688 -4.3124,1.6875 -6.4687,4.0078 -6.4687,6.9609 0,3.1406 2.4141,5.5547 7.2422,7.2422 3.0469,1.0781 7.0473,1.1402 14.8125,2.1078 15.0809,1.8793 25.2899,7.7759 25.5469,20.3922 0.1345,6.608 -3.2813,11.8359 -9.8438,15.6797 -5.4843,3.2343 -11.8125,4.8515 -18.9844,4.8515 -7.8749,0 -14.578,-1.5938 -20.1093,-4.7812 -6.4687,-3.7032 -10.2187,-9.1641 -11.25,-16.3828 l 11.3203,-2.3906 c 1.1719,5.1093 4.4297,8.6015 9.1524,10.1015 4.7226,1.5 8.0365,1.9757 11.7382,1.875 4.5938,-0.125 9.0781,-1.3672 11.6524,-2.836 2.7293,-1.5573 4.5495,-3.0879 4.6523,-5.6952 0.1829,-4.6371 -3.9067,-7.2691 -12.2504,-8.7691 -6.0938,-0.75 -12.519,-1.2319 -18.6168,-2.6919 -4.9423,-1.1833 -9.4489,-3.0019 -12.5859,-6.539 -2.874,-3.2406 -4.5703,-6.586 -4.5703,-12.1641 0,-5.6719 2.4141,-10.1484 7.8164,-14.1328 5.4024,-3.9844 12.7852,-6.3281 21.5039,-6.3281 7.8282,0 14.4844,1.5937 19.9688,4.7812 6.4218,3.75 10.1484,9.2109 11.1796,16.3828 l -11.4609,2.461"
         sodipodi:nodetypes="ccscccsscscccsssscsaczsccc"
         inkscape:export-filename="logo-current.png"
         inkscape:export-xdpi="90"
         inkscape:export-ydpi="90" />
      <path
         sodipodi:nodetypes="ccssscccccccccscccscscs"
         inkscape:connector-curvature="0"
         id="path4521"
         d="m 126.30444,1485.6954 c -9.51565,10e-5 -17.87502,3.5626 -25.09375,10.6875 -7.17188,7.1251 -10.78126,15.4219 -10.78125,24.9375 -1e-5,9.5156 3.54687,17.8281 10.625,24.9062 7.07811,7.0781 15.39059,10.625 24.90625,10.625 9.11103,0 16.58644,-3.4982 22.4375,-10.4375 l 0,8.9375 15.99556,0 0,-11.5937 -4.65625,0 0,-55.8125 -11.27681,0 0,8.2187 c -5.53131,-6.9843 -12.92192,-10.4686 -22.15625,-10.4687 z m 0,11.5937 c 6.28121,0 11.5312,2.4532 15.75,7.375 4.03119,4.7344 6.03118,10.2813 6.03125,16.6563 -7e-5,6.3281 -2.07818,11.8594 -6.25,16.5937 -4.35942,4.875 -9.64067,7.3125 -15.875,7.3125 -6.32816,0 -11.9219,-2.3749 -16.75,-7.1562 -4.78126,-4.8281 -7.15627,-10.4219 -7.15625,-16.75 -2e-5,-6.3281 2.45311,-11.8906 7.375,-16.7188 4.92185,-4.875 10.54684,-7.3125 16.875,-7.3125 z"
         style="font-size:144px;font-style:normal;font-variant:normal;font-weight:bold;font-stretch:normal;text-align:center;line-height:125%;letter-spacing:0px;word-spacing:0px;writing-mode:lr-tb;text-anchor:middle;fill:none;stroke:#000000;stroke-width:3.32786489;stroke-miterlimit:4;stroke-opacity:1;stroke-dasharray:none;font-family:Dustismo;-inkscape-font-specification:Dustismo Bold" />
      <path
         inkscape:connector-curvature="0"
         id="path4523"
         style="font-size:144px;font-style:normal;font-variant:normal;font-weight:bold;font-stretch:normal;text-align:start;line-height:125%;letter-spacing:0px;word-spacing:0px;writing-mode:lr-tb;text-anchor:start;fill:none;stroke:#000000;stroke-width:3.32786489;stroke-miterlimit:4;stroke-opacity:1;stroke-dasharray:none;font-family:Dustismo;-inkscape-font-specification:Dustismo Bold"
         d="m 433.60678,1487.1824 20.32031,0 0,68.2031 -11.60156,0 0,-56.6016 -8.71875,0 0,-11.6015"
         sodipodi:nodetypes="ccccccc" />
    </g>
    <g
       style="fill:url(#radialGradient4669);fill-opacity:1;stroke:none;display:inline"
       transform="matrix(0.90147892,0,0,0.90147892,901.16481,-307.43211)"
       id="g4342"
       inkscape:label="black blur"
       inkscape:export-filename="./path4328.png"
       inkscape:export-xdpi="90"
       inkscape:export-ydpi="90">
      <text
         xml:space="preserve"
         style="font-size:144px;font-style:normal;font-variant:normal;font-weight:bold;font-stretch:normal;text-align:start;line-height:125%;letter-spacing:0px;word-spacing:0px;writing-mode:lr-tb;text-anchor:start;fill:url(#radialGradient3329);fill-opacity:1;stroke:none;font-family:Dustismo;-inkscape-font-specification:Dustismo Bold"
         x="246.53732"
         y="1555.3855"
         id="text4344"
         sodipodi:linespacing="125%"
         inkscape:export-filename="logo-current.png"
         inkscape:export-xdpi="90"
         inkscape:export-ydpi="90"><tspan
           sodipodi:role="line"
           id="tspan4346"
           x="246.53732"
           y="1555.3855"
           dx="0 0 26.252148"
           style="fill:url(#radialGradient3329);fill-opacity:1"><tspan
             dx="-0.98228282 -4.3535538 121.26881"
             style="font-size:144px;font-style:normal;font-variant:normal;font-weight:bold;font-stretch:normal;text-align:start;line-height:125%;writing-mode:lr-tb;text-anchor:start;fill:url(#radialGradient3329);fill-opacity:1;stroke:none;font-family:Dustismo;-inkscape-font-specification:Dustismo Bold"
             id="tspan4348">to  <tspan
   style="font-weight:normal;fill:url(#radialGradient3329);fill-opacity:1;stroke:none;-inkscape-font-specification:Dustismo"
   id="tspan4350">Ἡμέρα</tspan></tspan></tspan></text>
      <path
         sodipodi:nodetypes="ccccc"
         inkscape:connector-curvature="0"
         id="path4352"
         d="m 448.25844,1456.6341 9.895,9.894 -9.895,9.895 -9.894,-9.895 z"
         style="fill:url(#radialGradient3331);fill-opacity:1;stroke:none" />
      <path
         inkscape:export-ydpi="90"
         inkscape:export-xdpi="90"
         inkscape:export-filename="logo-current.png"
         sodipodi:nodetypes="cccccccccsccccscccscscs"
         inkscape:connector-curvature="0"
         id="path4354"
         d="m 207.94439,1485.6954 c -9.0469,10e-5 -16.51565,3.5156 -22.375,10.5 l 0,-9 -11.32858,0 0,83.875 -13.21875,0 0,11.5937 24.54733,0 0,-36.2812 c 5.85935,6.9844 13.3281,10.4687 22.375,10.4687 9.4687,0 17.54682,-3.5625 24.25,-10.6875 6.56243,-7.0313 9.84368,-15.2968 9.84375,-24.8125 -7e-5,-9.5155 -3.28132,-17.7968 -9.84375,-24.875 -6.70318,-7.1718 -14.7813,-10.7811 -24.25,-10.7812 z m 0,11.625 c 6.28121,0 11.62495,2.4531 16.03125,7.375 4.26557,4.7813 6.37494,10.3282 6.375,16.6562 -6e-5,6.2813 -2.15631,11.7969 -6.46875,16.5313 -4.45318,4.9219 -9.75004,7.375 -15.9375,7.375 -6.23441,0 -11.53128,-2.4531 -15.84375,-7.375 -4.12502,-4.6875 -6.18752,-10.2031 -6.1875,-16.5313 -2e-5,-6.3749 2.04685,-11.9218 6.125,-16.6562 4.31247,-4.9219 9.62497,-7.375 15.90625,-7.375 z"
         style="fill:url(#radialGradient3333);fill-opacity:1;stroke:none" />
      <path
         inkscape:export-ydpi="90"
         inkscape:export-xdpi="90"
         inkscape:export-filename="logo-current.png"
         sodipodi:nodetypes="ccccccssscccccsscccscscs"
         inkscape:connector-curvature="0"
         id="path4356"
         d="m 508.45717,1459.9767 0,11.5937 13.25,0 0,24.625 c -5.5313,-6.9844 -12.89068,-10.4999 -22.125,-10.5 -9.51566,10e-5 -17.90627,3.5626 -25.125,10.6875 -7.17188,7.1251 -10.75,15.4532 -10.75,24.9687 0,9.5157 3.54687,17.8282 10.625,24.9063 7.0781,7.0781 15.35935,10.5937 24.875,10.5937 9.14058,0 16.64057,-3.4843 22.5,-10.4687 l 0,9 11.35225,0 0,-95.4062 z m -10.0625,37.3437 c 0.39002,-0.019 0.79199,0 1.1875,0 6.2812,0 11.53119,2.4531 15.75,7.375 4.03119,4.7344 6.03119,10.2813 6.03125,16.6562 -6e-5,6.3282 -2.07819,11.8594 -6.25,16.5938 -4.35943,4.875 -9.67192,7.3125 -15.90625,7.3125 -6.32815,0 -11.89065,-2.375 -16.71875,-7.1563 -4.78127,-4.8281 -7.18751,-10.4218 -7.1875,-16.75 -1e-5,-6.328 2.48435,-11.8906 7.40625,-16.7187 4.61423,-4.5704 9.83725,-7.0269 15.6875,-7.3125 z"
         style="fill:url(#radialGradient3335);fill-opacity:1;stroke:none" />
      <path
         inkscape:export-ydpi="90"
         inkscape:export-xdpi="90"
         inkscape:export-filename="logo-current.png"
         sodipodi:nodetypes="ccscccsscscccsssscsaczsccc"
         d="m 414.17377,1509.6121 c -0.2813,-4.3126 -2.7422,-7.5235 -7.3829,-9.6328 -3.6093,-1.6407 -7.8749,-2.461 -12.7968,-2.461 -3.5625,0 -6.9844,0.6563 -10.2657,1.9688 -4.3124,1.6875 -6.4687,4.0078 -6.4687,6.9609 0,3.1406 2.4141,5.5547 7.2422,7.2422 3.0469,1.0781 7.0473,1.1402 14.8125,2.1078 15.0809,1.8793 25.2899,7.7759 25.5469,20.3922 0.1345,6.608 -3.2813,11.8359 -9.8438,15.6797 -5.4843,3.2343 -11.8125,4.8515 -18.9844,4.8515 -7.8749,0 -14.578,-1.5938 -20.1093,-4.7812 -6.4687,-3.7032 -10.2187,-9.1641 -11.25,-16.3828 l 11.3203,-2.3906 c 1.1719,5.1093 4.4297,8.6015 9.1524,10.1015 4.7226,1.5 8.0365,1.9757 11.7382,1.875 4.5938,-0.125 9.0781,-1.3672 11.6524,-2.836 2.7293,-1.5573 4.5495,-3.0879 4.6523,-5.6952 0.1829,-4.6371 -3.9067,-7.2691 -12.2504,-8.7691 -6.0938,-0.75 -12.519,-1.2319 -18.6168,-2.6919 -4.9423,-1.1833 -9.4489,-3.0019 -12.5859,-6.539 -2.874,-3.2406 -4.5703,-6.586 -4.5703,-12.1641 0,-5.6719 2.4141,-10.1484 7.8164,-14.1328 5.4024,-3.9844 12.7852,-6.3281 21.5039,-6.3281 7.8282,0 14.4844,1.5937 19.9688,4.7812 6.4218,3.75 10.1484,9.2109 11.1796,16.3828 l -11.4609,2.461"
         style="font-size:144px;font-style:normal;font-variant:normal;font-weight:bold;font-stretch:normal;text-align:start;line-height:125%;letter-spacing:0px;word-spacing:0px;writing-mode:lr-tb;text-anchor:start;fill:url(#radialGradient3337);fill-opacity:1;stroke:none;font-family:Dustismo;-inkscape-font-specification:Dustismo Bold"
         id="path4358"
         inkscape:connector-curvature="0" />
      <path
         style="font-size:144px;font-style:normal;font-variant:normal;font-weight:bold;font-stretch:normal;text-align:center;line-height:125%;letter-spacing:0px;word-spacing:0px;writing-mode:lr-tb;text-anchor:middle;fill:url(#radialGradient3339);fill-opacity:1;stroke:none;font-family:Dustismo;-inkscape-font-specification:Dustismo Bold"
         d="m 126.30444,1485.6954 c -9.51565,10e-5 -17.87502,3.5626 -25.09375,10.6875 -7.17188,7.1251 -10.78126,15.4219 -10.78125,24.9375 -1e-5,9.5156 3.54687,17.8281 10.625,24.9062 7.07811,7.0781 15.39059,10.625 24.90625,10.625 9.11103,0 16.58644,-3.4982 22.4375,-10.4375 l 0,8.9375 15.99556,0 0,-11.5937 -4.65625,0 0,-55.8125 -11.27681,0 0,8.2187 c -5.53131,-6.9843 -12.92192,-10.4686 -22.15625,-10.4687 z m 0,11.5937 c 6.28121,0 11.5312,2.4532 15.75,7.375 4.03119,4.7344 6.03118,10.2813 6.03125,16.6563 -7e-5,6.3281 -2.07818,11.8594 -6.25,16.5937 -4.35942,4.875 -9.64067,7.3125 -15.875,7.3125 -6.32816,0 -11.9219,-2.3749 -16.75,-7.1562 -4.78126,-4.8281 -7.15627,-10.4219 -7.15625,-16.75 -2e-5,-6.3281 2.45311,-11.8906 7.375,-16.7188 4.92185,-4.875 10.54684,-7.3125 16.875,-7.3125 z"
         id="path4360"
         inkscape:connector-curvature="0"
         sodipodi:nodetypes="ccssscccccccccscccscscs" />
      <path
         sodipodi:nodetypes="ccccccc"
         d="m 433.60678,1487.1824 20.32031,0 0,68.2031 -11.60156,0 0,-56.6016 -8.71875,0 0,-11.6015"
         style="font-size:144px;font-style:normal;font-variant:normal;font-weight:bold;font-stretch:normal;text-align:start;line-height:125%;letter-spacing:0px;word-spacing:0px;writing-mode:lr-tb;text-anchor:start;fill:url(#radialGradient3341);fill-opacity:1;stroke:none;font-family:Dustismo;-inkscape-font-specification:Dustismo Bold"
         id="path4362"
         inkscape:connector-curvature="0" />
    </g>
    <g
       style="fill:none;stroke:#000000;stroke-width:3.32786489;stroke-miterlimit:4;stroke-opacity:1;stroke-dasharray:none;display:inline;filter:url(#filter4727)"
       transform="matrix(0.90147892,0,0,0.90147892,901.16481,-307.43211)"
       id="g4533"
       inkscape:label="black blur"
       inkscape:export-filename="./path4328.png"
       inkscape:export-xdpi="90"
       inkscape:export-ydpi="90">
      <text
         xml:space="preserve"
         style="font-size:144px;font-style:normal;font-variant:normal;font-weight:bold;font-stretch:normal;text-align:start;line-height:125%;letter-spacing:0px;word-spacing:0px;writing-mode:lr-tb;text-anchor:start;fill:none;stroke:#000000;stroke-width:3.32786489;stroke-miterlimit:4;stroke-opacity:1;stroke-dasharray:none;font-family:Dustismo;-inkscape-font-specification:Dustismo Bold"
         x="246.53732"
         y="1555.3855"
         id="text4535"
         sodipodi:linespacing="125%"
         inkscape:export-filename="logo-current.png"
         inkscape:export-xdpi="90"
         inkscape:export-ydpi="90"><tspan
           sodipodi:role="line"
           id="tspan4537"
           x="246.53732"
           y="1555.3855"
           dx="0 0 26.252148"><tspan
             dx="-0.98228282 -4.3535538 121.26881"
             style="font-size:144px;font-style:normal;font-variant:normal;font-weight:bold;font-stretch:normal;text-align:start;line-height:125%;writing-mode:lr-tb;text-anchor:start;fill:none;stroke:#000000;stroke-width:3.32786489;stroke-miterlimit:4;stroke-opacity:1;stroke-dasharray:none;font-family:Dustismo;-inkscape-font-specification:Dustismo Bold"
             id="tspan4539">to  <tspan
   style="font-weight:normal;fill:none;stroke:#000000;stroke-width:3.32786489;stroke-miterlimit:4;stroke-opacity:1;stroke-dasharray:none;-inkscape-font-specification:Dustismo"
   id="tspan4541">Ἡμέρα</tspan></tspan></tspan></text>
      <path
         sodipodi:nodetypes="ccccc"
         inkscape:connector-curvature="0"
         id="path4543"
         d="m 448.25844,1456.6341 9.895,9.894 -9.895,9.895 -9.894,-9.895 z"
         style="fill:none;stroke:#000000;stroke-width:3.32786489;stroke-miterlimit:4;stroke-opacity:1;stroke-dasharray:none" />
      <path
         inkscape:export-ydpi="90"
         inkscape:export-xdpi="90"
         inkscape:export-filename="logo-current.png"
         sodipodi:nodetypes="cccccccccsccccscccscscs"
         inkscape:connector-curvature="0"
         id="path4545"
         d="m 207.94439,1485.6954 c -9.0469,10e-5 -16.51565,3.5156 -22.375,10.5 l 0,-9 -11.32858,0 0,83.875 -13.21875,0 0,11.5937 24.54733,0 0,-36.2812 c 5.85935,6.9844 13.3281,10.4687 22.375,10.4687 9.4687,0 17.54682,-3.5625 24.25,-10.6875 6.56243,-7.0313 9.84368,-15.2968 9.84375,-24.8125 -7e-5,-9.5155 -3.28132,-17.7968 -9.84375,-24.875 -6.70318,-7.1718 -14.7813,-10.7811 -24.25,-10.7812 z m 0,11.625 c 6.28121,0 11.62495,2.4531 16.03125,7.375 4.26557,4.7813 6.37494,10.3282 6.375,16.6562 -6e-5,6.2813 -2.15631,11.7969 -6.46875,16.5313 -4.45318,4.9219 -9.75004,7.375 -15.9375,7.375 -6.23441,0 -11.53128,-2.4531 -15.84375,-7.375 -4.12502,-4.6875 -6.18752,-10.2031 -6.1875,-16.5313 -2e-5,-6.3749 2.04685,-11.9218 6.125,-16.6562 4.31247,-4.9219 9.62497,-7.375 15.90625,-7.375 z"
         style="fill:none;stroke:#000000;stroke-width:3.32786489;stroke-miterlimit:4;stroke-opacity:1;stroke-dasharray:none" />
      <path
         inkscape:export-ydpi="90"
         inkscape:export-xdpi="90"
         inkscape:export-filename="logo-current.png"
         sodipodi:nodetypes="ccccccssscccccsscccscscs"
         inkscape:connector-curvature="0"
         id="path4547"
         d="m 508.45717,1459.9767 0,11.5937 13.25,0 0,24.625 c -5.5313,-6.9844 -12.89068,-10.4999 -22.125,-10.5 -9.51566,10e-5 -17.90627,3.5626 -25.125,10.6875 -7.17188,7.1251 -10.75,15.4532 -10.75,24.9687 0,9.5157 3.54687,17.8282 10.625,24.9063 7.0781,7.0781 15.35935,10.5937 24.875,10.5937 9.14058,0 16.64057,-3.4843 22.5,-10.4687 l 0,9 11.35225,0 0,-95.4062 z m -10.0625,37.3437 c 0.39002,-0.019 0.79199,0 1.1875,0 6.2812,0 11.53119,2.4531 15.75,7.375 4.03119,4.7344 6.03119,10.2813 6.03125,16.6562 -6e-5,6.3282 -2.07819,11.8594 -6.25,16.5938 -4.35943,4.875 -9.67192,7.3125 -15.90625,7.3125 -6.32815,0 -11.89065,-2.375 -16.71875,-7.1563 -4.78127,-4.8281 -7.18751,-10.4218 -7.1875,-16.75 -1e-5,-6.328 2.48435,-11.8906 7.40625,-16.7187 4.61423,-4.5704 9.83725,-7.0269 15.6875,-7.3125 z"
         style="fill:none;stroke:#000000;stroke-width:3.32786489;stroke-miterlimit:4;stroke-opacity:1;stroke-dasharray:none" />
      <path
         inkscape:export-ydpi="90"
         inkscape:export-xdpi="90"
         inkscape:export-filename="logo-current.png"
         sodipodi:nodetypes="ccscccsscscccsssscsaczsccc"
         d="m 414.17377,1509.6121 c -0.2813,-4.3126 -2.7422,-7.5235 -7.3829,-9.6328 -3.6093,-1.6407 -7.8749,-2.461 -12.7968,-2.461 -3.5625,0 -6.9844,0.6563 -10.2657,1.9688 -4.3124,1.6875 -6.4687,4.0078 -6.4687,6.9609 0,3.1406 2.4141,5.5547 7.2422,7.2422 3.0469,1.0781 7.0473,1.1402 14.8125,2.1078 15.0809,1.8793 25.2899,7.7759 25.5469,20.3922 0.1345,6.608 -3.2813,11.8359 -9.8438,15.6797 -5.4843,3.2343 -11.8125,4.8515 -18.9844,4.8515 -7.8749,0 -14.578,-1.5938 -20.1093,-4.7812 -6.4687,-3.7032 -10.2187,-9.1641 -11.25,-16.3828 l 11.3203,-2.3906 c 1.1719,5.1093 4.4297,8.6015 9.1524,10.1015 4.7226,1.5 8.0365,1.9757 11.7382,1.875 4.5938,-0.125 9.0781,-1.3672 11.6524,-2.836 2.7293,-1.5573 4.5495,-3.0879 4.6523,-5.6952 0.1829,-4.6371 -3.9067,-7.2691 -12.2504,-8.7691 -6.0938,-0.75 -12.519,-1.2319 -18.6168,-2.6919 -4.9423,-1.1833 -9.4489,-3.0019 -12.5859,-6.539 -2.874,-3.2406 -4.5703,-6.586 -4.5703,-12.1641 0,-5.6719 2.4141,-10.1484 7.8164,-14.1328 5.4024,-3.9844 12.7852,-6.3281 21.5039,-6.3281 7.8282,0 14.4844,1.5937 19.9688,4.7812 6.4218,3.75 10.1484,9.2109 11.1796,16.3828 l -11.4609,2.461"
         style="font-size:144px;font-style:normal;font-variant:normal;font-weight:bold;font-stretch:normal;text-align:start;line-height:125%;letter-spacing:0px;word-spacing:0px;writing-mode:lr-tb;text-anchor:start;fill:none;stroke:#000000;stroke-width:3.32786489;stroke-miterlimit:4;stroke-opacity:1;stroke-dasharray:none;font-family:Dustismo;-inkscape-font-specification:Dustismo Bold"
         id="path4549"
         inkscape:connector-curvature="0" />
      <path
         style="font-size:144px;font-style:normal;font-variant:normal;font-weight:bold;font-stretch:normal;text-align:center;line-height:125%;letter-spacing:0px;word-spacing:0px;writing-mode:lr-tb;text-anchor:middle;fill:none;stroke:#000000;stroke-width:3.32786489;stroke-miterlimit:4;stroke-opacity:1;stroke-dasharray:none;font-family:Dustismo;-inkscape-font-specification:Dustismo Bold"
         d="m 126.30444,1485.6954 c -9.51565,10e-5 -17.87502,3.5626 -25.09375,10.6875 -7.17188,7.1251 -10.78126,15.4219 -10.78125,24.9375 -1e-5,9.5156 3.54687,17.8281 10.625,24.9062 7.07811,7.0781 15.39059,10.625 24.90625,10.625 9.11103,0 16.58644,-3.4982 22.4375,-10.4375 l 0,8.9375 15.99556,0 0,-11.5937 -4.65625,0 0,-55.8125 -11.27681,0 0,8.2187 c -5.53131,-6.9843 -12.92192,-10.4686 -22.15625,-10.4687 z m 0,11.5937 c 6.28121,0 11.5312,2.4532 15.75,7.375 4.03119,4.7344 6.03118,10.2813 6.03125,16.6563 -7e-5,6.3281 -2.07818,11.8594 -6.25,16.5937 -4.35942,4.875 -9.64067,7.3125 -15.875,7.3125 -6.32816,0 -11.9219,-2.3749 -16.75,-7.1562 -4.78126,-4.8281 -7.15627,-10.4219 -7.15625,-16.75 -2e-5,-6.3281 2.45311,-11.8906 7.375,-16.7188 4.92185,-4.875 10.54684,-7.3125 16.875,-7.3125 z"
         id="path4551"
         inkscape:connector-curvature="0"
         sodipodi:nodetypes="ccssscccccccccscccscscs" />
      <path
         sodipodi:nodetypes="ccccccc"
         d="m 433.60678,1487.1824 20.32031,0 0,68.2031 -11.60156,0 0,-56.6016 -8.71875,0 0,-11.6015"
         style="font-size:144px;font-style:normal;font-variant:normal;font-weight:bold;font-stretch:normal;text-align:start;line-height:125%;letter-spacing:0px;word-spacing:0px;writing-mode:lr-tb;text-anchor:start;fill:none;stroke:#000000;stroke-width:3.32786489;stroke-miterlimit:4;stroke-opacity:1;stroke-dasharray:none;font-family:Dustismo;-inkscape-font-specification:Dustismo Bold"
         id="path4553"
         inkscape:connector-curvature="0" />
    </g>
    <g
       inkscape:label="black blur"
       id="g4555"
       transform="matrix(0.90147892,0,0,0.90147892,901.16481,-307.43211)"
       style="fill:none;stroke:#000000;stroke-width:3.32786489;stroke-miterlimit:4;stroke-opacity:1;stroke-dasharray:none;display:inline;filter:url(#filter4731)"
       inkscape:export-filename="./path4328.png"
       inkscape:export-xdpi="90"
       inkscape:export-ydpi="90">
      <text
         inkscape:export-ydpi="90"
         inkscape:export-xdpi="90"
         inkscape:export-filename="logo-current.png"
         sodipodi:linespacing="125%"
         id="text4557"
         y="1555.3855"
         x="246.53732"
         style="font-size:144px;font-style:normal;font-variant:normal;font-weight:bold;font-stretch:normal;text-align:start;line-height:125%;letter-spacing:0px;word-spacing:0px;writing-mode:lr-tb;text-anchor:start;fill:none;stroke:#000000;stroke-width:3.32786489;stroke-miterlimit:4;stroke-opacity:1;stroke-dasharray:none;font-family:Dustismo;-inkscape-font-specification:Dustismo Bold"
         xml:space="preserve"><tspan
           dx="0 0 26.252148"
           y="1555.3855"
           x="246.53732"
           id="tspan4559"
           sodipodi:role="line"><tspan
             id="tspan4561"
             style="font-size:144px;font-style:normal;font-variant:normal;font-weight:bold;font-stretch:normal;text-align:start;line-height:125%;writing-mode:lr-tb;text-anchor:start;fill:none;stroke:#000000;stroke-width:3.32786489;stroke-miterlimit:4;stroke-opacity:1;stroke-dasharray:none;font-family:Dustismo;-inkscape-font-specification:Dustismo Bold"
             dx="-0.98228282 -4.3535538 121.26881">to  <tspan
   id="tspan4563"
   style="font-weight:normal;fill:none;stroke:#000000;stroke-width:3.32786489;stroke-miterlimit:4;stroke-opacity:1;stroke-dasharray:none;-inkscape-font-specification:Dustismo">Ἡμέρα</tspan></tspan></tspan></text>
      <path
         style="fill:none;stroke:#000000;stroke-width:3.32786489;stroke-miterlimit:4;stroke-opacity:1;stroke-dasharray:none"
         d="m 448.25844,1456.6341 9.895,9.894 -9.895,9.895 -9.894,-9.895 z"
         id="path4565"
         inkscape:connector-curvature="0"
         sodipodi:nodetypes="ccccc" />
      <path
         style="fill:none;stroke:#000000;stroke-width:3.32786489;stroke-miterlimit:4;stroke-opacity:1;stroke-dasharray:none"
         d="m 207.94439,1485.6954 c -9.0469,10e-5 -16.51565,3.5156 -22.375,10.5 l 0,-9 -11.32858,0 0,83.875 -13.21875,0 0,11.5937 24.54733,0 0,-36.2812 c 5.85935,6.9844 13.3281,10.4687 22.375,10.4687 9.4687,0 17.54682,-3.5625 24.25,-10.6875 6.56243,-7.0313 9.84368,-15.2968 9.84375,-24.8125 -7e-5,-9.5155 -3.28132,-17.7968 -9.84375,-24.875 -6.70318,-7.1718 -14.7813,-10.7811 -24.25,-10.7812 z m 0,11.625 c 6.28121,0 11.62495,2.4531 16.03125,7.375 4.26557,4.7813 6.37494,10.3282 6.375,16.6562 -6e-5,6.2813 -2.15631,11.7969 -6.46875,16.5313 -4.45318,4.9219 -9.75004,7.375 -15.9375,7.375 -6.23441,0 -11.53128,-2.4531 -15.84375,-7.375 -4.12502,-4.6875 -6.18752,-10.2031 -6.1875,-16.5313 -2e-5,-6.3749 2.04685,-11.9218 6.125,-16.6562 4.31247,-4.9219 9.62497,-7.375 15.90625,-7.375 z"
         id="path4567"
         inkscape:connector-curvature="0"
         sodipodi:nodetypes="cccccccccsccccscccscscs"
         inkscape:export-filename="logo-current.png"
         inkscape:export-xdpi="90"
         inkscape:export-ydpi="90" />
      <path
         style="fill:none;stroke:#000000;stroke-width:3.32786489;stroke-miterlimit:4;stroke-opacity:1;stroke-dasharray:none"
         d="m 508.45717,1459.9767 0,11.5937 13.25,0 0,24.625 c -5.5313,-6.9844 -12.89068,-10.4999 -22.125,-10.5 -9.51566,10e-5 -17.90627,3.5626 -25.125,10.6875 -7.17188,7.1251 -10.75,15.4532 -10.75,24.9687 0,9.5157 3.54687,17.8282 10.625,24.9063 7.0781,7.0781 15.35935,10.5937 24.875,10.5937 9.14058,0 16.64057,-3.4843 22.5,-10.4687 l 0,9 11.35225,0 0,-95.4062 z m -10.0625,37.3437 c 0.39002,-0.019 0.79199,0 1.1875,0 6.2812,0 11.53119,2.4531 15.75,7.375 4.03119,4.7344 6.03119,10.2813 6.03125,16.6562 -6e-5,6.3282 -2.07819,11.8594 -6.25,16.5938 -4.35943,4.875 -9.67192,7.3125 -15.90625,7.3125 -6.32815,0 -11.89065,-2.375 -16.71875,-7.1563 -4.78127,-4.8281 -7.18751,-10.4218 -7.1875,-16.75 -1e-5,-6.328 2.48435,-11.8906 7.40625,-16.7187 4.61423,-4.5704 9.83725,-7.0269 15.6875,-7.3125 z"
         id="path4569"
         inkscape:connector-curvature="0"
         sodipodi:nodetypes="ccccccssscccccsscccscscs"
         inkscape:export-filename="logo-current.png"
         inkscape:export-xdpi="90"
         inkscape:export-ydpi="90" />
      <path
         inkscape:connector-curvature="0"
         id="path4571"
         style="font-size:144px;font-style:normal;font-variant:normal;font-weight:bold;font-stretch:normal;text-align:start;line-height:125%;letter-spacing:0px;word-spacing:0px;writing-mode:lr-tb;text-anchor:start;fill:none;stroke:#000000;stroke-width:3.32786489;stroke-miterlimit:4;stroke-opacity:1;stroke-dasharray:none;font-family:Dustismo;-inkscape-font-specification:Dustismo Bold"
         d="m 414.17377,1509.6121 c -0.2813,-4.3126 -2.7422,-7.5235 -7.3829,-9.6328 -3.6093,-1.6407 -7.8749,-2.461 -12.7968,-2.461 -3.5625,0 -6.9844,0.6563 -10.2657,1.9688 -4.3124,1.6875 -6.4687,4.0078 -6.4687,6.9609 0,3.1406 2.4141,5.5547 7.2422,7.2422 3.0469,1.0781 7.0473,1.1402 14.8125,2.1078 15.0809,1.8793 25.2899,7.7759 25.5469,20.3922 0.1345,6.608 -3.2813,11.8359 -9.8438,15.6797 -5.4843,3.2343 -11.8125,4.8515 -18.9844,4.8515 -7.8749,0 -14.578,-1.5938 -20.1093,-4.7812 -6.4687,-3.7032 -10.2187,-9.1641 -11.25,-16.3828 l 11.3203,-2.3906 c 1.1719,5.1093 4.4297,8.6015 9.1524,10.1015 4.7226,1.5 8.0365,1.9757 11.7382,1.875 4.5938,-0.125 9.0781,-1.3672 11.6524,-2.836 2.7293,-1.5573 4.5495,-3.0879 4.6523,-5.6952 0.1829,-4.6371 -3.9067,-7.2691 -12.2504,-8.7691 -6.0938,-0.75 -12.519,-1.2319 -18.6168,-2.6919 -4.9423,-1.1833 -9.4489,-3.0019 -12.5859,-6.539 -2.874,-3.2406 -4.5703,-6.586 -4.5703,-12.1641 0,-5.6719 2.4141,-10.1484 7.8164,-14.1328 5.4024,-3.9844 12.7852,-6.3281 21.5039,-6.3281 7.8282,0 14.4844,1.5937 19.9688,4.7812 6.4218,3.75 10.1484,9.2109 11.1796,16.3828 l -11.4609,2.461"
         sodipodi:nodetypes="ccscccsscscccsssscsaczsccc"
         inkscape:export-filename="logo-current.png"
         inkscape:export-xdpi="90"
         inkscape:export-ydpi="90" />
      <path
         sodipodi:nodetypes="ccssscccccccccscccscscs"
         inkscape:connector-curvature="0"
         id="path4573"
         d="m 126.30444,1485.6954 c -9.51565,10e-5 -17.87502,3.5626 -25.09375,10.6875 -7.17188,7.1251 -10.78126,15.4219 -10.78125,24.9375 -1e-5,9.5156 3.54687,17.8281 10.625,24.9062 7.07811,7.0781 15.39059,10.625 24.90625,10.625 9.11103,0 16.58644,-3.4982 22.4375,-10.4375 l 0,8.9375 15.99556,0 0,-11.5937 -4.65625,0 0,-55.8125 -11.27681,0 0,8.2187 c -5.53131,-6.9843 -12.92192,-10.4686 -22.15625,-10.4687 z m 0,11.5937 c 6.28121,0 11.5312,2.4532 15.75,7.375 4.03119,4.7344 6.03118,10.2813 6.03125,16.6563 -7e-5,6.3281 -2.07818,11.8594 -6.25,16.5937 -4.35942,4.875 -9.64067,7.3125 -15.875,7.3125 -6.32816,0 -11.9219,-2.3749 -16.75,-7.1562 -4.78126,-4.8281 -7.15627,-10.4219 -7.15625,-16.75 -2e-5,-6.3281 2.45311,-11.8906 7.375,-16.7188 4.92185,-4.875 10.54684,-7.3125 16.875,-7.3125 z"
         style="font-size:144px;font-style:normal;font-variant:normal;font-weight:bold;font-stretch:normal;text-align:center;line-height:125%;letter-spacing:0px;word-spacing:0px;writing-mode:lr-tb;text-anchor:middle;fill:none;stroke:#000000;stroke-width:3.32786489;stroke-miterlimit:4;stroke-opacity:1;stroke-dasharray:none;font-family:Dustismo;-inkscape-font-specification:Dustismo Bold" />
      <path
         inkscape:connector-curvature="0"
         id="path4575"
         style="font-size:144px;font-style:normal;font-variant:normal;font-weight:bold;font-stretch:normal;text-align:start;line-height:125%;letter-spacing:0px;word-spacing:0px;writing-mode:lr-tb;text-anchor:start;fill:none;stroke:#000000;stroke-width:3.32786489;stroke-miterlimit:4;stroke-opacity:1;stroke-dasharray:none;font-family:Dustismo;-inkscape-font-specification:Dustismo Bold"
         d="m 433.60678,1487.1824 20.32031,0 0,68.2031 -11.60156,0 0,-56.6016 -8.71875,0 0,-11.6015"
         sodipodi:nodetypes="ccccccc" />
    </g>
    <path
       style="fill:#7d0000;fill-opacity:1;stroke:none"
       d="m 1305.2603,1005.6928 8.9202,8.9193 -8.9202,8.9201 -8.9192,-8.9201 z"
       id="path4228"
       inkscape:connector-curvature="0"
       sodipodi:nodetypes="ccccc"
       inkscape:label="dot"
       inkscape:export-filename="./path4328.png"
       inkscape:export-xdpi="90"
       inkscape:export-ydpi="90" />
    <g
       style="fill:none;stroke:#ffffff;stroke-width:1.10928833;stroke-miterlimit:4;stroke-opacity:1;stroke-dasharray:none;display:inline"
       transform="matrix(0.90147892,0,0,0.90147892,901.16481,-307.43211)"
       id="g4577"
       inkscape:label="black blur"
       inkscape:export-filename="./path4328.png"
       inkscape:export-xdpi="90"
       inkscape:export-ydpi="90">
      <text
         xml:space="preserve"
         style="font-size:144px;font-style:normal;font-variant:normal;font-weight:bold;font-stretch:normal;text-align:start;line-height:125%;letter-spacing:0px;word-spacing:0px;writing-mode:lr-tb;text-anchor:start;fill:none;stroke:#ffffff;stroke-width:1.10928833;stroke-miterlimit:4;stroke-opacity:1;stroke-dasharray:none;font-family:Dustismo;-inkscape-font-specification:Dustismo Bold"
         x="246.53732"
         y="1555.3855"
         id="text4579"
         sodipodi:linespacing="125%"
         inkscape:export-filename="logo-current.png"
         inkscape:export-xdpi="90"
         inkscape:export-ydpi="90"><tspan
           sodipodi:role="line"
           id="tspan4581"
           x="246.53732"
           y="1555.3855"
           dx="0 0 26.252148"><tspan
             dx="-0.98228282 -4.3535538 121.26881"
             style="font-size:144px;font-style:normal;font-variant:normal;font-weight:bold;font-stretch:normal;text-align:start;line-height:125%;writing-mode:lr-tb;text-anchor:start;fill:none;stroke:#ffffff;stroke-width:1.10928833;stroke-miterlimit:4;stroke-opacity:1;stroke-dasharray:none;font-family:Dustismo;-inkscape-font-specification:Dustismo Bold"
             id="tspan4583">to  <tspan
   style="font-weight:normal;fill:none;stroke:#ffffff;stroke-width:1.10928833;stroke-miterlimit:4;stroke-opacity:1;stroke-dasharray:none;-inkscape-font-specification:Dustismo"
   id="tspan4585">Ἡμέρα</tspan></tspan></tspan></text>
      <path
         sodipodi:nodetypes="ccccc"
         inkscape:connector-curvature="0"
         id="path4587"
         d="m 448.25844,1456.6341 9.895,9.894 -9.895,9.895 -9.894,-9.895 z"
         style="fill:none;stroke:#ffffff;stroke-width:1.10928833;stroke-miterlimit:4;stroke-opacity:1;stroke-dasharray:none" />
      <path
         inkscape:export-ydpi="90"
         inkscape:export-xdpi="90"
         inkscape:export-filename="logo-current.png"
         sodipodi:nodetypes="cccccccccsccccscccscscs"
         inkscape:connector-curvature="0"
         id="path4589"
         d="m 207.94439,1485.6954 c -9.0469,10e-5 -16.51565,3.5156 -22.375,10.5 l 0,-9 -11.32858,0 0,83.875 -13.21875,0 0,11.5937 24.54733,0 0,-36.2812 c 5.85935,6.9844 13.3281,10.4687 22.375,10.4687 9.4687,0 17.54682,-3.5625 24.25,-10.6875 6.56243,-7.0313 9.84368,-15.2968 9.84375,-24.8125 -7e-5,-9.5155 -3.28132,-17.7968 -9.84375,-24.875 -6.70318,-7.1718 -14.7813,-10.7811 -24.25,-10.7812 z m 0,11.625 c 6.28121,0 11.62495,2.4531 16.03125,7.375 4.26557,4.7813 6.37494,10.3282 6.375,16.6562 -6e-5,6.2813 -2.15631,11.7969 -6.46875,16.5313 -4.45318,4.9219 -9.75004,7.375 -15.9375,7.375 -6.23441,0 -11.53128,-2.4531 -15.84375,-7.375 -4.12502,-4.6875 -6.18752,-10.2031 -6.1875,-16.5313 -2e-5,-6.3749 2.04685,-11.9218 6.125,-16.6562 4.31247,-4.9219 9.62497,-7.375 15.90625,-7.375 z"
         style="fill:none;stroke:#ffffff;stroke-width:1.10928833;stroke-miterlimit:4;stroke-opacity:1;stroke-dasharray:none" />
      <path
         inkscape:export-ydpi="90"
         inkscape:export-xdpi="90"
         inkscape:export-filename="logo-current.png"
         sodipodi:nodetypes="ccccccssscccccsscccscscs"
         inkscape:connector-curvature="0"
         id="path4591"
         d="m 508.45717,1459.9767 0,11.5937 13.25,0 0,24.625 c -5.5313,-6.9844 -12.89068,-10.4999 -22.125,-10.5 -9.51566,10e-5 -17.90627,3.5626 -25.125,10.6875 -7.17188,7.1251 -10.75,15.4532 -10.75,24.9687 0,9.5157 3.54687,17.8282 10.625,24.9063 7.0781,7.0781 15.35935,10.5937 24.875,10.5937 9.14058,0 16.64057,-3.4843 22.5,-10.4687 l 0,9 11.35225,0 0,-95.4062 z m -10.0625,37.3437 c 0.39002,-0.019 0.79199,0 1.1875,0 6.2812,0 11.53119,2.4531 15.75,7.375 4.03119,4.7344 6.03119,10.2813 6.03125,16.6562 -6e-5,6.3282 -2.07819,11.8594 -6.25,16.5938 -4.35943,4.875 -9.67192,7.3125 -15.90625,7.3125 -6.32815,0 -11.89065,-2.375 -16.71875,-7.1563 -4.78127,-4.8281 -7.18751,-10.4218 -7.1875,-16.75 -1e-5,-6.328 2.48435,-11.8906 7.40625,-16.7187 4.61423,-4.5704 9.83725,-7.0269 15.6875,-7.3125 z"
         style="fill:none;stroke:#ffffff;stroke-width:1.10928833;stroke-miterlimit:4;stroke-opacity:1;stroke-dasharray:none" />
      <path
         inkscape:export-ydpi="90"
         inkscape:export-xdpi="90"
         inkscape:export-filename="logo-current.png"
         sodipodi:nodetypes="ccscccsscscccsssscsaczsccc"
         d="m 414.17377,1509.6121 c -0.2813,-4.3126 -2.7422,-7.5235 -7.3829,-9.6328 -3.6093,-1.6407 -7.8749,-2.461 -12.7968,-2.461 -3.5625,0 -6.9844,0.6563 -10.2657,1.9688 -4.3124,1.6875 -6.4687,4.0078 -6.4687,6.9609 0,3.1406 2.4141,5.5547 7.2422,7.2422 3.0469,1.0781 7.0473,1.1402 14.8125,2.1078 15.0809,1.8793 25.2899,7.7759 25.5469,20.3922 0.1345,6.608 -3.2813,11.8359 -9.8438,15.6797 -5.4843,3.2343 -11.8125,4.8515 -18.9844,4.8515 -7.8749,0 -14.578,-1.5938 -20.1093,-4.7812 -6.4687,-3.7032 -10.2187,-9.1641 -11.25,-16.3828 l 11.3203,-2.3906 c 1.1719,5.1093 4.4297,8.6015 9.1524,10.1015 4.7226,1.5 8.0365,1.9757 11.7382,1.875 4.5938,-0.125 9.0781,-1.3672 11.6524,-2.836 2.7293,-1.5573 4.5495,-3.0879 4.6523,-5.6952 0.1829,-4.6371 -3.9067,-7.2691 -12.2504,-8.7691 -6.0938,-0.75 -12.519,-1.2319 -18.6168,-2.6919 -4.9423,-1.1833 -9.4489,-3.0019 -12.5859,-6.539 -2.874,-3.2406 -4.5703,-6.586 -4.5703,-12.1641 0,-5.6719 2.4141,-10.1484 7.8164,-14.1328 5.4024,-3.9844 12.7852,-6.3281 21.5039,-6.3281 7.8282,0 14.4844,1.5937 19.9688,4.7812 6.4218,3.75 10.1484,9.2109 11.1796,16.3828 l -11.4609,2.461"
         style="font-size:144px;font-style:normal;font-variant:normal;font-weight:bold;font-stretch:normal;text-align:start;line-height:125%;letter-spacing:0px;word-spacing:0px;writing-mode:lr-tb;text-anchor:start;fill:none;stroke:#ffffff;stroke-width:1.10928833;stroke-miterlimit:4;stroke-opacity:1;stroke-dasharray:none;font-family:Dustismo;-inkscape-font-specification:Dustismo Bold"
         id="path4593"
         inkscape:connector-curvature="0" />
      <path
         style="font-size:144px;font-style:normal;font-variant:normal;font-weight:bold;font-stretch:normal;text-align:center;line-height:125%;letter-spacing:0px;word-spacing:0px;writing-mode:lr-tb;text-anchor:middle;fill:none;stroke:#ffffff;stroke-width:1.10928833;stroke-miterlimit:4;stroke-opacity:1;stroke-dasharray:none;font-family:Dustismo;-inkscape-font-specification:Dustismo Bold"
         d="m 126.30444,1485.6954 c -9.51565,10e-5 -17.87502,3.5626 -25.09375,10.6875 -7.17188,7.1251 -10.78126,15.4219 -10.78125,24.9375 -1e-5,9.5156 3.54687,17.8281 10.625,24.9062 7.07811,7.0781 15.39059,10.625 24.90625,10.625 9.11103,0 16.58644,-3.4982 22.4375,-10.4375 l 0,8.9375 15.99556,0 0,-11.5937 -4.65625,0 0,-55.8125 -11.27681,0 0,8.2187 c -5.53131,-6.9843 -12.92192,-10.4686 -22.15625,-10.4687 z m 0,11.5937 c 6.28121,0 11.5312,2.4532 15.75,7.375 4.03119,4.7344 6.03118,10.2813 6.03125,16.6563 -7e-5,6.3281 -2.07818,11.8594 -6.25,16.5937 -4.35942,4.875 -9.64067,7.3125 -15.875,7.3125 -6.32816,0 -11.9219,-2.3749 -16.75,-7.1562 -4.78126,-4.8281 -7.15627,-10.4219 -7.15625,-16.75 -2e-5,-6.3281 2.45311,-11.8906 7.375,-16.7188 4.92185,-4.875 10.54684,-7.3125 16.875,-7.3125 z"
         id="path4595"
         inkscape:connector-curvature="0"
         sodipodi:nodetypes="ccssscccccccccscccscscs" />
      <path
         sodipodi:nodetypes="ccccccc"
         d="m 433.60678,1487.1824 20.32031,0 0,68.2031 -11.60156,0 0,-56.6016 -8.71875,0 0,-11.6015"
         style="font-size:144px;font-style:normal;font-variant:normal;font-weight:bold;font-stretch:normal;text-align:start;line-height:125%;letter-spacing:0px;word-spacing:0px;writing-mode:lr-tb;text-anchor:start;fill:none;stroke:#ffffff;stroke-width:1.10928833;stroke-miterlimit:4;stroke-opacity:1;stroke-dasharray:none;font-family:Dustismo;-inkscape-font-specification:Dustismo Bold"
         id="path4597"
         inkscape:connector-curvature="0" />
    </g>
  </g>
  <g
     inkscape:groupmode="layer"
     id="layer4"
     inkscape:label="Fred"
     style="display:inline">
    <path
       style="color:#000000;fill:none;stroke:#000000;stroke-width:4;stroke-miterlimit:4;stroke-opacity:1;stroke-dasharray:none;marker:none;visibility:visible;display:inline;overflow:visible;filter:url(#filter4685)"
       d="m 820.97371,923.538 c -12.74501,0.2277 -24.52744,15.4522 -24.52744,15.4522 -19.42482,-16.0311 -19.30303,21.5105 -19.30303,21.5105 -18.07057,8.3399 -13.392,37.9194 -13.392,37.9194 l 5.64133,1.2509 c -4.52915,8.872 -7.0884,18.8869 -7.0884,29.4819 0,3.128 0.23209,6.1854 0.6622,9.1978 -9.55781,1.6191 -27.95137,5.8627 -24.7726,14.1278 l -1.69242,3.4093 c 0,0 -8.52445,3.4102 -6.81858,8.9524 1.02298,3.3235 9.22577,9.9867 15.64844,14.8146 -2.34221,0.9247 -9.75279,4.272 -7.92237,9.2958 2.16499,5.9387 29.75178,21.9276 29.75178,21.9276 l -13.51461,-20.554 c 0,0 24.23731,-2.8555 32.76861,-10.6203 1.07974,0.8873 2.17564,1.7553 3.31119,2.5753 -4.69572,2.2329 -7.788,5.1812 -6.32813,8.977 l -1.71685,3.4093 c 0,0 -8.52445,3.4104 -6.81869,8.9526 1.70593,5.5421 23.44836,20.4558 23.44819,20.4558 l -10.66937,-19.1805 c 0,0 12.05346,-1.6684 20.38222,-5.9846 -0.87478,11.9232 8.7736,26.5275 24.77277,35.7364 15.49996,8.9216 32.35163,10.0867 42.35874,4.0225 -4.97444,-0.7513 -10.43033,-2.6341 -15.69747,-5.6659 -14.04621,-8.0846 -21.64585,-21.2408 -16.97302,-29.3592 4.65723,-8.0914 19.76734,-8.1265 33.77427,-0.1227 -4.22767,-5.4715 -10.05327,-10.5752 -17.12017,-14.6428 -0.27837,-0.1603 -0.55465,-0.3107 -0.83385,-0.466 3.99215,-1.9129 7.7553,-4.2178 11.258,-6.8432 0.84703,3.8902 2.32539,7.923 4.4885,11.8468 2.85699,5.1823 6.48599,9.4662 10.3996,12.6071 -5.62031,-10.2708 -5.41844,-21.2318 0.51505,-24.5029 5.95346,-3.2821 15.41524,2.4294 21.09357,12.7297 2.12948,3.8626 3.42135,7.8347 3.89988,11.4543 3.12422,-4.9473 3.77479,-12.3022 1.83957,-20.1125 3.27871,-2.0742 19.88185,-12.7669 21.58408,-17.7824 1.88116,-5.5421 -7.52993,-8.9524 -7.52993,-8.9524 l -1.86412,-3.4093 c 1.77493,-4.184 -2.56333,-7.3373 -8.63361,-9.6393 3.27921,-2.5058 6.08341,-5.0081 6.59796,-6.5243 1.36821,-4.0345 -5.49417,-6.4997 -5.49417,-6.4997 l -1.34901,-2.4773 c 2.53697,-5.9799 -12.0389,-9.0597 -19.74456,-10.2524 -4.51333,-32.0475 -32.5054,-56.7564 -66.19936,-56.7564 -16.17755,0 -31.0426,5.687 -42.62873,15.1579 2.16412,-6.1506 3.6792,-11.16 3.6792,-11.16 8.01018,1.7631 16.01633,-19.4257 16.01633,-19.4257 6.94246,1.5281 33.92148,-7.0884 33.92148,-7.0884 0,0 8.90586,9.2184 13.22018,2.3301 4.31521,-6.8868 13.22024,0.1227 13.22024,0.1227 -20.5767,-28.60204 -26.21974,-8.0205 -26.21974,-8.0205 l -5.71479,-4.6112 c -4.34278,-5.2685 -9.07657,-7.1462 -13.68636,-7.0638 z m 0.19613,3.0414 c 8.85434,-0.2775 12.09207,8.1187 12.09207,8.1185 -4.06259,2.5979 -30.97801,1.9132 -30.97801,1.9132 8.07476,-7.3746 14.24813,-9.8864 18.88594,-10.0317 z m -30.29126,12.4108 c 1.93764,-0.06 3.31114,0.6622 3.31114,0.6622 l -9.81097,14.8636 c -2.36852,2.5701 -1.01554,5.4843 0.49061,7.4564 1.17703,0.9385 2.10879,1.8122 2.15837,2.281 0,0 -1.11261,-0.912 -2.15837,-2.281 -2.18871,-1.7454 -5.24878,-3.7036 -5.24878,-3.7036 1.84823,-16.2057 7.55889,-19.1634 11.258,-19.2786 z M 777.51113,963.91 c -4.33865,3.8466 -1.32447,25.8762 -1.32447,25.8764 l -9.71279,4.415 C 765.0938,974.6943 777.51113,963.91 777.51113,963.91 z m 51.65477,8.3394 c 32.05428,0 57.8845,25.4826 57.88467,56.9035 0,0.4538 -0.0143,0.8978 -0.0243,1.349 -15.73255,23.2599 -57.60304,8.702 -81.92154,-8.3883 -23.07716,-16.2181 -31.71788,1.3347 -33.8478,7.162 -5e-5,-0.041 0,-0.082 0,-0.1227 0,-31.4209 25.85483,-56.9035 57.90927,-56.9035 z m -7.01494,36.742 31.37056,23.9387 c 6.99238,-11.8657 -31.37056,-23.9387 -31.37056,-23.9387 z m 52.66038,1.9376 c -5.43786,-0.174 -7.52999,22.4672 -7.52999,22.4672 l 9.32047,-21.6087 c -0.63557,-0.5562 -1.22794,-0.8404 -1.79048,-0.8585 z m 20.55392,10.7186 c 10.9927,-0.044 18.02766,7.7261 18.02766,7.7261 l -0.17171,3.8753 c -3.59205,0 -20.87278,-7.1375 -20.87278,-7.1375 l -0.5151,-4.1942 c 1.21873,-0.1891 2.39472,-0.2652 3.53193,-0.2697 z m -98.89444,12.2636 c 4.13528,-0.1027 9.98267,3.9244 9.98267,3.9244 51.38086,20.491 78.58569,0.7113 78.58569,0.7113 -7.55613,19.0766 -81.6056,15.5462 -86.14022,14.839 -4.53451,-0.7071 -8.29969,-10.6136 -6.0336,-16.9729 0.63761,-1.7886 1.98734,-2.4616 3.60546,-2.5018 z m 119.47291,0.7359 c 0,0 7.88144,2.0141 3.4338,3.4093 l -3.4338,-3.4093 z m -20.3087,1.3735 c 6.66911,3.0311 16.04098,4.1941 16.04098,4.1941 l -2.2811,3.7282 c -5.38545,-1.4379 -10.78911,-2.3282 -14.47112,-2.8452 0.31169,-1.6687 0.53044,-3.3672 0.71124,-5.0771 z m -132.84031,4.5621 c 1.41697,0.01 2.87183,0.1326 4.39044,0.3924 l -0.63777,5.7394 c 0,0 -21.52335,9.811 -25.999,9.811 l -0.22085,-5.3225 c 0,0 8.77018,-10.6808 22.46718,-10.6203 z m 134.06676,2.9678 c 15.10736,-0.061 24.77261,10.6203 24.77261,10.6203 l -0.24523,5.3225 c -4.93736,0 -28.67259,-9.7864 -28.67259,-9.7864 l -0.71129,-5.764 c 1.67493,-0.2598 3.2936,-0.3862 4.8565,-0.3924 z m -14.42214,6.0582 c -8.44884,10.8696 -61.73491,27.4936 -63.03544,28.133 -1.30053,0.6394 -9.73734,-3.2014 -9.73734,-7.6771 0,-4.4757 4.53754,-7.6771 4.53754,-7.6771 11.04736,5.7545 68.23524,-12.7788 68.23524,-12.7788 z m -114.19953,6.6715 c 0.90489,1.9625 1.92776,3.8605 3.01688,5.7149 -12.04194,2.3374 -26.25146,6.6447 -23.03121,13.7108 l -0.22079,0.3679 -5.54315,-9.9581 c 0,0 19.00955,-2.6326 25.77827,-9.8355 z m 121.2143,1.2999 c 0.0541,0.08 0.0903,0.1661 0.14727,0.2453 -0.0754,-0.029 -0.14545,-0.07 -0.22079,-0.098 0.0243,-0.049 0.0491,-0.098 0.0738,-0.1472 z m -152.31499,0.8585 -4.26782,4.6847 c -5.54221,-1.9181 4.26782,-4.6847 4.26782,-4.6847 z m 188.0269,2.9923 c 0,0 10.79728,2.7666 4.6848,4.6848 l -4.6848,-4.6848 z m -145.74163,1.5207 c 1.79842,0.01 3.66458,0.1387 5.59218,0.417 l -0.80942,6.1809 c 0,0 -27.30764,10.4977 -32.98945,10.4977 l -0.26971,-5.7148 c 0,0 11.09054,-11.4457 28.4764,-11.3808 z m 95.09263,0.024 c -3.72613,9.8024 5.54315,36.1043 5.54315,36.1043 0,0 -4.81812,-6.8527 -8.38833,-18.7879 -3.57026,-11.9353 2.84518,-17.3164 2.84518,-17.3164 z m 24.87073,1.2509 c 8.90128,3.4957 19.89166,4.8565 19.89166,4.8565 l -7.7751,15.4032 c -0.88167,-3.1753 -2.15313,-6.3976 -3.89993,-9.5657 -2.31226,-4.1947 -5.14768,-7.8027 -8.21663,-10.694 z m -91.41355,15.1334 c 1.41691,0.01 2.87182,0.1327 4.39039,0.3924 l -0.63778,5.764 c 0,0 -21.52329,9.7864 -25.99894,9.7864 l -0.1963,-5.3224 c 0,0 8.74546,-10.6808 22.44263,-10.6204 z m 95.31337,0.7604 c 0.20336,-0.01 0.40154,-0.01 0.61318,0 0.78161,0.014 1.60835,0.1395 2.47734,0.417 3.50264,7.8904 2.33007,15.3295 2.33007,15.3295 0,0 -1.54768,-6.5943 -4.4885,-9.9336 -2.94093,-3.339 -5.69031,-4.2432 -5.69031,-4.2432 -0.36695,0.2791 1.70803,-1.4095 4.75822,-1.5697 z m -156.41111,1.9867 -5.39599,5.0036 c -7.03457,-2.0563 5.39599,-5.0036 5.39599,-5.0036 z m 100.56226,9.3204 c 0.29007,-0.01 0.58951,-0.012 0.90749,0 10.18179,0.3771 12.82785,5.2979 12.82785,5.2979 0,0 -8.30245,-1.9008 -12.82785,-0.3925 -4.52513,1.5085 -6.0336,4.1452 -6.0336,4.1452 0.36519,0.7307 -3.8654,-8.797 5.12611,-9.0506 z m -36.42309,1.8886 c 5.36003,21.0678 49.766,47.5341 49.766,47.5341 0,0 -15.29312,-3.1398 -34.43642,-16.139 -19.14325,-12.9993 -15.32958,-31.3951 -15.32958,-31.3951 z m -28.69714,3.9244 -4.26771,4.6847 c -5.54227,-1.9181 4.26771,-4.6847 4.26771,-4.6847 z"
       id="path4679"
       inkscape:label="white outline"
       inkscape:export-filename="./path4328.png"
       inkscape:export-xdpi="90"
       inkscape:export-ydpi="90"
       inkscape:connector-curvature="0" />
    <path
       inkscape:label="white outline"
       id="path4335"
       d="m 820.97371,923.538 c -12.74501,0.2277 -24.52744,15.4522 -24.52744,15.4522 -19.42482,-16.0311 -19.30303,21.5105 -19.30303,21.5105 -18.07057,8.3399 -13.392,37.9194 -13.392,37.9194 l 5.64133,1.2509 c -4.52915,8.872 -7.0884,18.8869 -7.0884,29.4819 0,3.128 0.23209,6.1854 0.6622,9.1978 -9.55781,1.6191 -27.95137,5.8627 -24.7726,14.1278 l -1.69242,3.4093 c 0,0 -8.52445,3.4102 -6.81858,8.9524 1.02298,3.3235 9.22577,9.9867 15.64844,14.8146 -2.34221,0.9247 -9.75279,4.272 -7.92237,9.2958 2.16499,5.9387 29.75178,21.9276 29.75178,21.9276 l -13.51461,-20.554 c 0,0 24.23731,-2.8555 32.76861,-10.6203 1.07974,0.8873 2.17564,1.7553 3.31119,2.5753 -4.69572,2.2329 -7.788,5.1812 -6.32813,8.977 l -1.71685,3.4093 c 0,0 -8.52445,3.4104 -6.81869,8.9526 1.70593,5.5421 23.44836,20.4558 23.44819,20.4558 l -10.66937,-19.1805 c 0,0 12.05346,-1.6684 20.38222,-5.9846 -0.87478,11.9232 8.7736,26.5275 24.77277,35.7364 15.49996,8.9216 32.35163,10.0867 42.35874,4.0225 -4.97444,-0.7513 -10.43033,-2.6341 -15.69747,-5.6659 -14.04621,-8.0846 -21.64585,-21.2408 -16.97302,-29.3592 4.65723,-8.0914 19.76734,-8.1265 33.77427,-0.1227 -4.22767,-5.4715 -10.05327,-10.5752 -17.12017,-14.6428 -0.27837,-0.1603 -0.55465,-0.3107 -0.83385,-0.466 3.99215,-1.9129 7.7553,-4.2178 11.258,-6.8432 0.84703,3.8902 2.32539,7.923 4.4885,11.8468 2.85699,5.1823 6.48599,9.4662 10.3996,12.6071 -5.62031,-10.2708 -5.41844,-21.2318 0.51505,-24.5029 5.95346,-3.2821 15.41524,2.4294 21.09357,12.7297 2.12948,3.8626 3.42135,7.8347 3.89988,11.4543 3.12422,-4.9473 3.77479,-12.3022 1.83957,-20.1125 3.27871,-2.0742 19.88185,-12.7669 21.58408,-17.7824 1.88116,-5.5421 -7.52993,-8.9524 -7.52993,-8.9524 l -1.86412,-3.4093 c 1.77493,-4.184 -2.56333,-7.3373 -8.63361,-9.6393 3.27921,-2.5058 6.08341,-5.0081 6.59796,-6.5243 1.36821,-4.0345 -5.49417,-6.4997 -5.49417,-6.4997 l -1.34901,-2.4773 c 2.53697,-5.9799 -12.0389,-9.0597 -19.74456,-10.2524 -4.51333,-32.0475 -32.5054,-56.7564 -66.19936,-56.7564 -16.17755,0 -31.0426,5.687 -42.62873,15.1579 2.16412,-6.1506 3.6792,-11.16 3.6792,-11.16 8.01018,1.7631 16.01633,-19.4257 16.01633,-19.4257 6.94246,1.5281 33.92148,-7.0884 33.92148,-7.0884 0,0 8.90586,9.2184 13.22018,2.3301 4.31521,-6.8868 13.22024,0.1227 13.22024,0.1227 -20.5767,-28.60204 -26.21974,-8.0205 -26.21974,-8.0205 l -5.71479,-4.6112 c -4.34278,-5.2685 -9.07657,-7.1462 -13.68636,-7.0638 z m 0.19613,3.0414 c 8.85434,-0.2775 12.09207,8.1187 12.09207,8.1185 -4.06259,2.5979 -30.97801,1.9132 -30.97801,1.9132 8.07476,-7.3746 14.24813,-9.8864 18.88594,-10.0317 z m -30.29126,12.4108 c 1.93764,-0.06 3.31114,0.6622 3.31114,0.6622 l -9.81097,14.8636 c -2.36852,2.5701 -1.01554,5.4843 0.49061,7.4564 1.17703,0.9385 2.10879,1.8122 2.15837,2.281 0,0 -1.11261,-0.912 -2.15837,-2.281 -2.18871,-1.7454 -5.24878,-3.7036 -5.24878,-3.7036 1.84823,-16.2057 7.55889,-19.1634 11.258,-19.2786 z M 777.51113,963.91 c -4.33865,3.8466 -1.32447,25.8762 -1.32447,25.8764 l -9.71279,4.415 C 765.0938,974.6943 777.51113,963.91 777.51113,963.91 z m 51.65477,8.3394 c 32.05428,0 57.8845,25.4826 57.88467,56.9035 0,0.4538 -0.0143,0.8978 -0.0243,1.349 -15.73255,23.2599 -57.60304,8.702 -81.92154,-8.3883 -23.07716,-16.2181 -31.71788,1.3347 -33.8478,7.162 -5e-5,-0.041 0,-0.082 0,-0.1227 0,-31.4209 25.85483,-56.9035 57.90927,-56.9035 z m -7.01494,36.742 31.37056,23.9387 c 6.99238,-11.8657 -31.37056,-23.9387 -31.37056,-23.9387 z m 52.66038,1.9376 c -5.43786,-0.174 -7.52999,22.4672 -7.52999,22.4672 l 9.32047,-21.6087 c -0.63557,-0.5562 -1.22794,-0.8404 -1.79048,-0.8585 z m 20.55392,10.7186 c 10.9927,-0.044 18.02766,7.7261 18.02766,7.7261 l -0.17171,3.8753 c -3.59205,0 -20.87278,-7.1375 -20.87278,-7.1375 l -0.5151,-4.1942 c 1.21873,-0.1891 2.39472,-0.2652 3.53193,-0.2697 z m -98.89444,12.2636 c 4.13528,-0.1027 9.98267,3.9244 9.98267,3.9244 51.38086,20.491 78.58569,0.7113 78.58569,0.7113 -7.55613,19.0766 -81.6056,15.5462 -86.14022,14.839 -4.53451,-0.7071 -8.29969,-10.6136 -6.0336,-16.9729 0.63761,-1.7886 1.98734,-2.4616 3.60546,-2.5018 z m 119.47291,0.7359 c 0,0 7.88144,2.0141 3.4338,3.4093 l -3.4338,-3.4093 z m -20.3087,1.3735 c 6.66911,3.0311 16.04098,4.1941 16.04098,4.1941 l -2.2811,3.7282 c -5.38545,-1.4379 -10.78911,-2.3282 -14.47112,-2.8452 0.31169,-1.6687 0.53044,-3.3672 0.71124,-5.0771 z m -132.84031,4.5621 c 1.41697,0.01 2.87183,0.1326 4.39044,0.3924 l -0.63777,5.7394 c 0,0 -21.52335,9.811 -25.999,9.811 l -0.22085,-5.3225 c 0,0 8.77018,-10.6808 22.46718,-10.6203 z m 134.06676,2.9678 c 15.10736,-0.061 24.77261,10.6203 24.77261,10.6203 l -0.24523,5.3225 c -4.93736,0 -28.67259,-9.7864 -28.67259,-9.7864 l -0.71129,-5.764 c 1.67493,-0.2598 3.2936,-0.3862 4.8565,-0.3924 z m -14.42214,6.0582 c -8.44884,10.8696 -61.73491,27.4936 -63.03544,28.133 -1.30053,0.6394 -9.73734,-3.2014 -9.73734,-7.6771 0,-4.4757 4.53754,-7.6771 4.53754,-7.6771 11.04736,5.7545 68.23524,-12.7788 68.23524,-12.7788 z m -114.19953,6.6715 c 0.90489,1.9625 1.92776,3.8605 3.01688,5.7149 -12.04194,2.3374 -26.25146,6.6447 -23.03121,13.7108 l -0.22079,0.3679 -5.54315,-9.9581 c 0,0 19.00955,-2.6326 25.77827,-9.8355 z m 121.2143,1.2999 c 0.0541,0.08 0.0903,0.1661 0.14727,0.2453 -0.0754,-0.029 -0.14545,-0.07 -0.22079,-0.098 0.0243,-0.049 0.0491,-0.098 0.0738,-0.1472 z m -152.31499,0.8585 -4.26782,4.6847 c -5.54221,-1.9181 4.26782,-4.6847 4.26782,-4.6847 z m 188.0269,2.9923 c 0,0 10.79728,2.7666 4.6848,4.6848 l -4.6848,-4.6848 z m -145.74163,1.5207 c 1.79842,0.01 3.66458,0.1387 5.59218,0.417 l -0.80942,6.1809 c 0,0 -27.30764,10.4977 -32.98945,10.4977 l -0.26971,-5.7148 c 0,0 11.09054,-11.4457 28.4764,-11.3808 z m 95.09263,0.024 c -3.72613,9.8024 5.54315,36.1043 5.54315,36.1043 0,0 -4.81812,-6.8527 -8.38833,-18.7879 -3.57026,-11.9353 2.84518,-17.3164 2.84518,-17.3164 z m 24.87073,1.2509 c 8.90128,3.4957 19.89166,4.8565 19.89166,4.8565 l -7.7751,15.4032 c -0.88167,-3.1753 -2.15313,-6.3976 -3.89993,-9.5657 -2.31226,-4.1947 -5.14768,-7.8027 -8.21663,-10.694 z m -91.41355,15.1334 c 1.41691,0.01 2.87182,0.1327 4.39039,0.3924 l -0.63778,5.764 c 0,0 -21.52329,9.7864 -25.99894,9.7864 l -0.1963,-5.3224 c 0,0 8.74546,-10.6808 22.44263,-10.6204 z m 95.31337,0.7604 c 0.20336,-0.01 0.40154,-0.01 0.61318,0 0.78161,0.014 1.60835,0.1395 2.47734,0.417 3.50264,7.8904 2.33007,15.3295 2.33007,15.3295 0,0 -1.54768,-6.5943 -4.4885,-9.9336 -2.94093,-3.339 -5.69031,-4.2432 -5.69031,-4.2432 -0.36695,0.2791 1.70803,-1.4095 4.75822,-1.5697 z m -156.41111,1.9867 -5.39599,5.0036 c -7.03457,-2.0563 5.39599,-5.0036 5.39599,-5.0036 z m 100.56226,9.3204 c 0.29007,-0.01 0.58951,-0.012 0.90749,0 10.18179,0.3771 12.82785,5.2979 12.82785,5.2979 0,0 -8.30245,-1.9008 -12.82785,-0.3925 -4.52513,1.5085 -6.0336,4.1452 -6.0336,4.1452 0.36519,0.7307 -3.8654,-8.797 5.12611,-9.0506 z m -36.42309,1.8886 c 5.36003,21.0678 49.766,47.5341 49.766,47.5341 0,0 -15.29312,-3.1398 -34.43642,-16.139 -19.14325,-12.9993 -15.32958,-31.3951 -15.32958,-31.3951 z m -28.69714,3.9244 -4.26771,4.6847 c -5.54227,-1.9181 4.26771,-4.6847 4.26771,-4.6847 z"
       style="color:#000000;fill:none;stroke:#000000;stroke-width:4;stroke-miterlimit:4;stroke-opacity:1;stroke-dasharray:none;marker:none;visibility:visible;display:inline;overflow:visible;filter:url(#filter4330)"
       inkscape:export-filename="./path4328.png"
       inkscape:export-xdpi="90"
       inkscape:export-ydpi="90"
       inkscape:connector-curvature="0" />
    <path
       inkscape:label="white outline"
       id="path4339"
       d="m 820.97371,923.538 c -12.74501,0.2277 -24.52744,15.4522 -24.52744,15.4522 -19.42482,-16.0311 -19.30303,21.5105 -19.30303,21.5105 -18.07057,8.3399 -13.392,37.9194 -13.392,37.9194 l 5.64133,1.2509 c -4.52915,8.872 -7.0884,18.8869 -7.0884,29.4819 0,3.128 0.23209,6.1854 0.6622,9.1978 -9.55781,1.6191 -27.95137,5.8627 -24.7726,14.1278 l -1.69242,3.4093 c 0,0 -8.52445,3.4102 -6.81858,8.9524 1.02298,3.3235 9.22577,9.9867 15.64844,14.8146 -2.34221,0.9247 -9.75279,4.272 -7.92237,9.2958 2.16499,5.9387 29.75178,21.9276 29.75178,21.9276 l -13.51461,-20.554 c 0,0 24.23731,-2.8555 32.76861,-10.6203 1.07974,0.8873 2.17564,1.7553 3.31119,2.5753 -4.69572,2.2329 -7.788,5.1812 -6.32813,8.977 l -1.71685,3.4093 c 0,0 -8.52445,3.4104 -6.81869,8.9526 1.70593,5.5421 23.44836,20.4558 23.44819,20.4558 l -10.66937,-19.1805 c 0,0 12.05346,-1.6684 20.38222,-5.9846 -0.87478,11.9232 8.7736,26.5275 24.77277,35.7364 15.49996,8.9216 32.35163,10.0867 42.35874,4.0225 -4.97444,-0.7513 -10.43033,-2.6341 -15.69747,-5.6659 -14.04621,-8.0846 -21.64585,-21.2408 -16.97302,-29.3592 4.65723,-8.0914 19.76734,-8.1265 33.77427,-0.1227 -4.22767,-5.4715 -10.05327,-10.5752 -17.12017,-14.6428 -0.27837,-0.1603 -0.55465,-0.3107 -0.83385,-0.466 3.99215,-1.9129 7.7553,-4.2178 11.258,-6.8432 0.84703,3.8902 2.32539,7.923 4.4885,11.8468 2.85699,5.1823 6.48599,9.4662 10.3996,12.6071 -5.62031,-10.2708 -5.41844,-21.2318 0.51505,-24.5029 5.95346,-3.2821 15.41524,2.4294 21.09357,12.7297 2.12948,3.8626 3.42135,7.8347 3.89988,11.4543 3.12422,-4.9473 3.77479,-12.3022 1.83957,-20.1125 3.27871,-2.0742 19.88185,-12.7669 21.58408,-17.7824 1.88116,-5.5421 -7.52993,-8.9524 -7.52993,-8.9524 l -1.86412,-3.4093 c 1.77493,-4.184 -2.56333,-7.3373 -8.63361,-9.6393 3.27921,-2.5058 6.08341,-5.0081 6.59796,-6.5243 1.36821,-4.0345 -5.49417,-6.4997 -5.49417,-6.4997 l -1.34901,-2.4773 c 2.53697,-5.9799 -12.0389,-9.0597 -19.74456,-10.2524 -4.51333,-32.0475 -32.5054,-56.7564 -66.19936,-56.7564 -16.17755,0 -31.0426,5.687 -42.62873,15.1579 2.16412,-6.1506 3.6792,-11.16 3.6792,-11.16 8.01018,1.7631 16.01633,-19.4257 16.01633,-19.4257 6.94246,1.5281 33.92148,-7.0884 33.92148,-7.0884 0,0 8.90586,9.2184 13.22018,2.3301 4.31521,-6.8868 13.22024,0.1227 13.22024,0.1227 -20.5767,-28.60204 -26.21974,-8.0205 -26.21974,-8.0205 l -5.71479,-4.6112 c -4.34278,-5.2685 -9.07657,-7.1462 -13.68636,-7.0638 z m 0.19613,3.0414 c 8.85434,-0.2775 12.09207,8.1187 12.09207,8.1185 -4.06259,2.5979 -30.97801,1.9132 -30.97801,1.9132 8.07476,-7.3746 14.24813,-9.8864 18.88594,-10.0317 z m -30.29126,12.4108 c 1.93764,-0.06 3.31114,0.6622 3.31114,0.6622 l -9.81097,14.8636 c -2.36852,2.5701 -1.01554,5.4843 0.49061,7.4564 1.17703,0.9385 2.10879,1.8122 2.15837,2.281 0,0 -1.11261,-0.912 -2.15837,-2.281 -2.18871,-1.7454 -5.24878,-3.7036 -5.24878,-3.7036 1.84823,-16.2057 7.55889,-19.1634 11.258,-19.2786 z M 777.51113,963.91 c -4.33865,3.8466 -1.32447,25.8762 -1.32447,25.8764 l -9.71279,4.415 C 765.0938,974.6943 777.51113,963.91 777.51113,963.91 z m 51.65477,8.3394 c 32.05428,0 57.8845,25.4826 57.88467,56.9035 0,0.4538 -0.0143,0.8978 -0.0243,1.349 -15.73255,23.2599 -57.60304,8.702 -81.92154,-8.3883 -23.07716,-16.2181 -31.71788,1.3347 -33.8478,7.162 -5e-5,-0.041 0,-0.082 0,-0.1227 0,-31.4209 25.85483,-56.9035 57.90927,-56.9035 z m -7.01494,36.742 31.37056,23.9387 c 6.99238,-11.8657 -31.37056,-23.9387 -31.37056,-23.9387 z m 52.66038,1.9376 c -5.43786,-0.174 -7.52999,22.4672 -7.52999,22.4672 l 9.32047,-21.6087 c -0.63557,-0.5562 -1.22794,-0.8404 -1.79048,-0.8585 z m 20.55392,10.7186 c 10.9927,-0.044 18.02766,7.7261 18.02766,7.7261 l -0.17171,3.8753 c -3.59205,0 -20.87278,-7.1375 -20.87278,-7.1375 l -0.5151,-4.1942 c 1.21873,-0.1891 2.39472,-0.2652 3.53193,-0.2697 z m -98.89444,12.2636 c 4.13528,-0.1027 9.98267,3.9244 9.98267,3.9244 51.38086,20.491 78.58569,0.7113 78.58569,0.7113 -7.55613,19.0766 -81.6056,15.5462 -86.14022,14.839 -4.53451,-0.7071 -8.29969,-10.6136 -6.0336,-16.9729 0.63761,-1.7886 1.98734,-2.4616 3.60546,-2.5018 z m 119.47291,0.7359 c 0,0 7.88144,2.0141 3.4338,3.4093 l -3.4338,-3.4093 z m -20.3087,1.3735 c 6.66911,3.0311 16.04098,4.1941 16.04098,4.1941 l -2.2811,3.7282 c -5.38545,-1.4379 -10.78911,-2.3282 -14.47112,-2.8452 0.31169,-1.6687 0.53044,-3.3672 0.71124,-5.0771 z m -132.84031,4.5621 c 1.41697,0.01 2.87183,0.1326 4.39044,0.3924 l -0.63777,5.7394 c 0,0 -21.52335,9.811 -25.999,9.811 l -0.22085,-5.3225 c 0,0 8.77018,-10.6808 22.46718,-10.6203 z m 134.06676,2.9678 c 15.10736,-0.061 24.77261,10.6203 24.77261,10.6203 l -0.24523,5.3225 c -4.93736,0 -28.67259,-9.7864 -28.67259,-9.7864 l -0.71129,-5.764 c 1.67493,-0.2598 3.2936,-0.3862 4.8565,-0.3924 z m -14.42214,6.0582 c -8.44884,10.8696 -61.73491,27.4936 -63.03544,28.133 -1.30053,0.6394 -9.73734,-3.2014 -9.73734,-7.6771 0,-4.4757 4.53754,-7.6771 4.53754,-7.6771 11.04736,5.7545 68.23524,-12.7788 68.23524,-12.7788 z m -114.19953,6.6715 c 0.90489,1.9625 1.92776,3.8605 3.01688,5.7149 -12.04194,2.3374 -26.25146,6.6447 -23.03121,13.7108 l -0.22079,0.3679 -5.54315,-9.9581 c 0,0 19.00955,-2.6326 25.77827,-9.8355 z m 121.2143,1.2999 c 0.0541,0.08 0.0903,0.1661 0.14727,0.2453 -0.0754,-0.029 -0.14545,-0.07 -0.22079,-0.098 0.0243,-0.049 0.0491,-0.098 0.0738,-0.1472 z m -152.31499,0.8585 -4.26782,4.6847 c -5.54221,-1.9181 4.26782,-4.6847 4.26782,-4.6847 z m 188.0269,2.9923 c 0,0 10.79728,2.7666 4.6848,4.6848 l -4.6848,-4.6848 z m -145.74163,1.5207 c 1.79842,0.01 3.66458,0.1387 5.59218,0.417 l -0.80942,6.1809 c 0,0 -27.30764,10.4977 -32.98945,10.4977 l -0.26971,-5.7148 c 0,0 11.09054,-11.4457 28.4764,-11.3808 z m 95.09263,0.024 c -3.72613,9.8024 5.54315,36.1043 5.54315,36.1043 0,0 -4.81812,-6.8527 -8.38833,-18.7879 -3.57026,-11.9353 2.84518,-17.3164 2.84518,-17.3164 z m 24.87073,1.2509 c 8.90128,3.4957 19.89166,4.8565 19.89166,4.8565 l -7.7751,15.4032 c -0.88167,-3.1753 -2.15313,-6.3976 -3.89993,-9.5657 -2.31226,-4.1947 -5.14768,-7.8027 -8.21663,-10.694 z m -91.41355,15.1334 c 1.41691,0.01 2.87182,0.1327 4.39039,0.3924 l -0.63778,5.764 c 0,0 -21.52329,9.7864 -25.99894,9.7864 l -0.1963,-5.3224 c 0,0 8.74546,-10.6808 22.44263,-10.6204 z m 95.31337,0.7604 c 0.20336,-0.01 0.40154,-0.01 0.61318,0 0.78161,0.014 1.60835,0.1395 2.47734,0.417 3.50264,7.8904 2.33007,15.3295 2.33007,15.3295 0,0 -1.54768,-6.5943 -4.4885,-9.9336 -2.94093,-3.339 -5.69031,-4.2432 -5.69031,-4.2432 -0.36695,0.2791 1.70803,-1.4095 4.75822,-1.5697 z m -156.41111,1.9867 -5.39599,5.0036 c -7.03457,-2.0563 5.39599,-5.0036 5.39599,-5.0036 z m 100.56226,9.3204 c 0.29007,-0.01 0.58951,-0.012 0.90749,0 10.18179,0.3771 12.82785,5.2979 12.82785,5.2979 0,0 -8.30245,-1.9008 -12.82785,-0.3925 -4.52513,1.5085 -6.0336,4.1452 -6.0336,4.1452 0.36519,0.7307 -3.8654,-8.797 5.12611,-9.0506 z m -36.42309,1.8886 c 5.36003,21.0678 49.766,47.5341 49.766,47.5341 0,0 -15.29312,-3.1398 -34.43642,-16.139 -19.14325,-12.9993 -15.32958,-31.3951 -15.32958,-31.3951 z m -28.69714,3.9244 -4.26771,4.6847 c -5.54227,-1.9181 4.26771,-4.6847 4.26771,-4.6847 z"
       style="color:#000000;fill:url(#radialGradient4677);fill-opacity:1;stroke:none;stroke-width:4;marker:none;visibility:visible;display:inline;overflow:visible"
       inkscape:export-filename="./path4328.png"
       inkscape:export-xdpi="90"
       inkscape:export-ydpi="90"
       inkscape:connector-curvature="0" />
    <path
       style="color:#000000;fill:none;stroke:#000000;stroke-width:4;stroke-miterlimit:4;stroke-opacity:1;stroke-dasharray:none;marker:none;visibility:visible;display:inline;overflow:visible;filter:url(#filter4330)"
       d="m 820.97371,923.538 c -12.74501,0.2277 -24.52744,15.4522 -24.52744,15.4522 -19.42482,-16.0311 -19.30303,21.5105 -19.30303,21.5105 -18.07057,8.3399 -13.392,37.9194 -13.392,37.9194 l 5.64133,1.2509 c -4.52915,8.872 -7.0884,18.8869 -7.0884,29.4819 0,3.128 0.23209,6.1854 0.6622,9.1978 -9.55781,1.6191 -27.95137,5.8627 -24.7726,14.1278 l -1.69242,3.4093 c 0,0 -8.52445,3.4102 -6.81858,8.9524 1.02298,3.3235 9.22577,9.9867 15.64844,14.8146 -2.34221,0.9247 -9.75279,4.272 -7.92237,9.2958 2.16499,5.9387 29.75178,21.9276 29.75178,21.9276 l -13.51461,-20.554 c 0,0 24.23731,-2.8555 32.76861,-10.6203 1.07974,0.8873 2.17564,1.7553 3.31119,2.5753 -4.69572,2.2329 -7.788,5.1812 -6.32813,8.977 l -1.71685,3.4093 c 0,0 -8.52445,3.4104 -6.81869,8.9526 1.70593,5.5421 23.44836,20.4558 23.44819,20.4558 l -10.66937,-19.1805 c 0,0 12.05346,-1.6684 20.38222,-5.9846 -0.87478,11.9232 8.7736,26.5275 24.77277,35.7364 15.49996,8.9216 32.35163,10.0867 42.35874,4.0225 -4.97444,-0.7513 -10.43033,-2.6341 -15.69747,-5.6659 -14.04621,-8.0846 -21.64585,-21.2408 -16.97302,-29.3592 4.65723,-8.0914 19.76734,-8.1265 33.77427,-0.1227 -4.22767,-5.4715 -10.05327,-10.5752 -17.12017,-14.6428 -0.27837,-0.1603 -0.55465,-0.3107 -0.83385,-0.466 3.99215,-1.9129 7.7553,-4.2178 11.258,-6.8432 0.84703,3.8902 2.32539,7.923 4.4885,11.8468 2.85699,5.1823 6.48599,9.4662 10.3996,12.6071 -5.62031,-10.2708 -5.41844,-21.2318 0.51505,-24.5029 5.95346,-3.2821 15.41524,2.4294 21.09357,12.7297 2.12948,3.8626 3.42135,7.8347 3.89988,11.4543 3.12422,-4.9473 3.77479,-12.3022 1.83957,-20.1125 3.27871,-2.0742 19.88185,-12.7669 21.58408,-17.7824 1.88116,-5.5421 -7.52993,-8.9524 -7.52993,-8.9524 l -1.86412,-3.4093 c 1.77493,-4.184 -2.56333,-7.3373 -8.63361,-9.6393 3.27921,-2.5058 6.08341,-5.0081 6.59796,-6.5243 1.36821,-4.0345 -5.49417,-6.4997 -5.49417,-6.4997 l -1.34901,-2.4773 c 2.53697,-5.9799 -12.0389,-9.0597 -19.74456,-10.2524 -4.51333,-32.0475 -32.5054,-56.7564 -66.19936,-56.7564 -16.17755,0 -31.0426,5.687 -42.62873,15.1579 2.16412,-6.1506 3.6792,-11.16 3.6792,-11.16 8.01018,1.7631 16.01633,-19.4257 16.01633,-19.4257 6.94246,1.5281 33.92148,-7.0884 33.92148,-7.0884 0,0 8.90586,9.2184 13.22018,2.3301 4.31521,-6.8868 13.22024,0.1227 13.22024,0.1227 -20.5767,-28.60204 -26.21974,-8.0205 -26.21974,-8.0205 l -5.71479,-4.6112 c -4.34278,-5.2685 -9.07657,-7.1462 -13.68636,-7.0638 z m 0.19613,3.0414 c 8.85434,-0.2775 12.09207,8.1187 12.09207,8.1185 -4.06259,2.5979 -30.97801,1.9132 -30.97801,1.9132 8.07476,-7.3746 14.24813,-9.8864 18.88594,-10.0317 z m -30.29126,12.4108 c 1.93764,-0.06 3.31114,0.6622 3.31114,0.6622 l -9.81097,14.8636 c -2.36852,2.5701 -1.01554,5.4843 0.49061,7.4564 1.17703,0.9385 2.10879,1.8122 2.15837,2.281 0,0 -1.11261,-0.912 -2.15837,-2.281 -2.18871,-1.7454 -5.24878,-3.7036 -5.24878,-3.7036 1.84823,-16.2057 7.55889,-19.1634 11.258,-19.2786 z M 777.51113,963.91 c -4.33865,3.8466 -1.32447,25.8762 -1.32447,25.8764 l -9.71279,4.415 C 765.0938,974.6943 777.51113,963.91 777.51113,963.91 z m 51.65477,8.3394 c 32.05428,0 57.8845,25.4826 57.88467,56.9035 0,0.4538 -0.0143,0.8978 -0.0243,1.349 -15.73255,23.2599 -57.60304,8.702 -81.92154,-8.3883 -23.07716,-16.2181 -31.71788,1.3347 -33.8478,7.162 -5e-5,-0.041 0,-0.082 0,-0.1227 0,-31.4209 25.85483,-56.9035 57.90927,-56.9035 z m -7.01494,36.742 31.37056,23.9387 c 6.99238,-11.8657 -31.37056,-23.9387 -31.37056,-23.9387 z m 52.66038,1.9376 c -5.43786,-0.174 -7.52999,22.4672 -7.52999,22.4672 l 9.32047,-21.6087 c -0.63557,-0.5562 -1.22794,-0.8404 -1.79048,-0.8585 z m 20.55392,10.7186 c 10.9927,-0.044 18.02766,7.7261 18.02766,7.7261 l -0.17171,3.8753 c -3.59205,0 -20.87278,-7.1375 -20.87278,-7.1375 l -0.5151,-4.1942 c 1.21873,-0.1891 2.39472,-0.2652 3.53193,-0.2697 z m -98.89444,12.2636 c 4.13528,-0.1027 9.98267,3.9244 9.98267,3.9244 51.38086,20.491 78.58569,0.7113 78.58569,0.7113 -7.55613,19.0766 -81.6056,15.5462 -86.14022,14.839 -4.53451,-0.7071 -8.29969,-10.6136 -6.0336,-16.9729 0.63761,-1.7886 1.98734,-2.4616 3.60546,-2.5018 z m 119.47291,0.7359 c 0,0 7.88144,2.0141 3.4338,3.4093 l -3.4338,-3.4093 z m -20.3087,1.3735 c 6.66911,3.0311 16.04098,4.1941 16.04098,4.1941 l -2.2811,3.7282 c -5.38545,-1.4379 -10.78911,-2.3282 -14.47112,-2.8452 0.31169,-1.6687 0.53044,-3.3672 0.71124,-5.0771 z m -132.84031,4.5621 c 1.41697,0.01 2.87183,0.1326 4.39044,0.3924 l -0.63777,5.7394 c 0,0 -21.52335,9.811 -25.999,9.811 l -0.22085,-5.3225 c 0,0 8.77018,-10.6808 22.46718,-10.6203 z m 134.06676,2.9678 c 15.10736,-0.061 24.77261,10.6203 24.77261,10.6203 l -0.24523,5.3225 c -4.93736,0 -28.67259,-9.7864 -28.67259,-9.7864 l -0.71129,-5.764 c 1.67493,-0.2598 3.2936,-0.3862 4.8565,-0.3924 z m -14.42214,6.0582 c -8.44884,10.8696 -61.73491,27.4936 -63.03544,28.133 -1.30053,0.6394 -9.73734,-3.2014 -9.73734,-7.6771 0,-4.4757 4.53754,-7.6771 4.53754,-7.6771 11.04736,5.7545 68.23524,-12.7788 68.23524,-12.7788 z m -114.19953,6.6715 c 0.90489,1.9625 1.92776,3.8605 3.01688,5.7149 -12.04194,2.3374 -26.25146,6.6447 -23.03121,13.7108 l -0.22079,0.3679 -5.54315,-9.9581 c 0,0 19.00955,-2.6326 25.77827,-9.8355 z m 121.2143,1.2999 c 0.0541,0.08 0.0903,0.1661 0.14727,0.2453 -0.0754,-0.029 -0.14545,-0.07 -0.22079,-0.098 0.0243,-0.049 0.0491,-0.098 0.0738,-0.1472 z m -152.31499,0.8585 -4.26782,4.6847 c -5.54221,-1.9181 4.26782,-4.6847 4.26782,-4.6847 z m 188.0269,2.9923 c 0,0 10.79728,2.7666 4.6848,4.6848 l -4.6848,-4.6848 z m -145.74163,1.5207 c 1.79842,0.01 3.66458,0.1387 5.59218,0.417 l -0.80942,6.1809 c 0,0 -27.30764,10.4977 -32.98945,10.4977 l -0.26971,-5.7148 c 0,0 11.09054,-11.4457 28.4764,-11.3808 z m 95.09263,0.024 c -3.72613,9.8024 5.54315,36.1043 5.54315,36.1043 0,0 -4.81812,-6.8527 -8.38833,-18.7879 -3.57026,-11.9353 2.84518,-17.3164 2.84518,-17.3164 z m 24.87073,1.2509 c 8.90128,3.4957 19.89166,4.8565 19.89166,4.8565 l -7.7751,15.4032 c -0.88167,-3.1753 -2.15313,-6.3976 -3.89993,-9.5657 -2.31226,-4.1947 -5.14768,-7.8027 -8.21663,-10.694 z m -91.41355,15.1334 c 1.41691,0.01 2.87182,0.1327 4.39039,0.3924 l -0.63778,5.764 c 0,0 -21.52329,9.7864 -25.99894,9.7864 l -0.1963,-5.3224 c 0,0 8.74546,-10.6808 22.44263,-10.6204 z m 95.31337,0.7604 c 0.20336,-0.01 0.40154,-0.01 0.61318,0 0.78161,0.014 1.60835,0.1395 2.47734,0.417 3.50264,7.8904 2.33007,15.3295 2.33007,15.3295 0,0 -1.54768,-6.5943 -4.4885,-9.9336 -2.94093,-3.339 -5.69031,-4.2432 -5.69031,-4.2432 -0.36695,0.2791 1.70803,-1.4095 4.75822,-1.5697 z m -156.41111,1.9867 -5.39599,5.0036 c -7.03457,-2.0563 5.39599,-5.0036 5.39599,-5.0036 z m 100.56226,9.3204 c 0.29007,-0.01 0.58951,-0.012 0.90749,0 10.18179,0.3771 12.82785,5.2979 12.82785,5.2979 0,0 -8.30245,-1.9008 -12.82785,-0.3925 -4.52513,1.5085 -6.0336,4.1452 -6.0336,4.1452 0.36519,0.7307 -3.8654,-8.797 5.12611,-9.0506 z m -36.42309,1.8886 c 5.36003,21.0678 49.766,47.5341 49.766,47.5341 0,0 -15.29312,-3.1398 -34.43642,-16.139 -19.14325,-12.9993 -15.32958,-31.3951 -15.32958,-31.3951 z m -28.69714,3.9244 -4.26771,4.6847 c -5.54227,-1.9181 4.26771,-4.6847 4.26771,-4.6847 z"
       id="path4592"
       inkscape:label="white outline"
       inkscape:export-filename="./path4328.png"
       inkscape:export-xdpi="90"
       inkscape:export-ydpi="90"
       inkscape:connector-curvature="0" />
    <path
       inkscape:label="white outline"
       id="path4328"
       d="m 820.97371,923.538 c -12.74501,0.2277 -24.52744,15.4522 -24.52744,15.4522 -19.42482,-16.0311 -19.30303,21.5105 -19.30303,21.5105 -18.07057,8.3399 -13.392,37.9194 -13.392,37.9194 l 5.64133,1.2509 c -4.52915,8.872 -7.0884,18.8869 -7.0884,29.4819 0,3.128 0.23209,6.1854 0.6622,9.1978 -9.55781,1.6191 -27.95137,5.8627 -24.7726,14.1278 l -1.69242,3.4093 c 0,0 -8.52445,3.4102 -6.81858,8.9524 1.02298,3.3235 9.22577,9.9867 15.64844,14.8146 -2.34221,0.9247 -9.75279,4.272 -7.92237,9.2958 2.16499,5.9387 29.75178,21.9276 29.75178,21.9276 l -13.51461,-20.554 c 0,0 24.23731,-2.8555 32.76861,-10.6203 1.07974,0.8873 2.17564,1.7553 3.31119,2.5753 -4.69572,2.2329 -7.788,5.1812 -6.32813,8.977 l -1.71685,3.4093 c 0,0 -8.52445,3.4104 -6.81869,8.9526 1.70593,5.5421 23.44836,20.4558 23.44819,20.4558 l -10.66937,-19.1805 c 0,0 12.05346,-1.6684 20.38222,-5.9846 -0.87478,11.9232 8.7736,26.5275 24.77277,35.7364 15.49996,8.9216 32.35163,10.0867 42.35874,4.0225 -4.97444,-0.7513 -10.43033,-2.6341 -15.69747,-5.6659 -14.04621,-8.0846 -21.64585,-21.2408 -16.97302,-29.3592 4.65723,-8.0914 19.76734,-8.1265 33.77427,-0.1227 -4.22767,-5.4715 -10.05327,-10.5752 -17.12017,-14.6428 -0.27837,-0.1603 -0.55465,-0.3107 -0.83385,-0.466 3.99215,-1.9129 7.7553,-4.2178 11.258,-6.8432 0.84703,3.8902 2.32539,7.923 4.4885,11.8468 2.85699,5.1823 6.48599,9.4662 10.3996,12.6071 -5.62031,-10.2708 -5.41844,-21.2318 0.51505,-24.5029 5.95346,-3.2821 15.41524,2.4294 21.09357,12.7297 2.12948,3.8626 3.42135,7.8347 3.89988,11.4543 3.12422,-4.9473 3.77479,-12.3022 1.83957,-20.1125 3.27871,-2.0742 19.88185,-12.7669 21.58408,-17.7824 1.88116,-5.5421 -7.52993,-8.9524 -7.52993,-8.9524 l -1.86412,-3.4093 c 1.77493,-4.184 -2.56333,-7.3373 -8.63361,-9.6393 3.27921,-2.5058 6.08341,-5.0081 6.59796,-6.5243 1.36821,-4.0345 -5.49417,-6.4997 -5.49417,-6.4997 l -1.34901,-2.4773 c 2.53697,-5.9799 -12.0389,-9.0597 -19.74456,-10.2524 -4.51333,-32.0475 -32.5054,-56.7564 -66.19936,-56.7564 -16.17755,0 -31.0426,5.687 -42.62873,15.1579 2.16412,-6.1506 3.6792,-11.16 3.6792,-11.16 8.01018,1.7631 16.01633,-19.4257 16.01633,-19.4257 6.94246,1.5281 33.92148,-7.0884 33.92148,-7.0884 0,0 8.90586,9.2184 13.22018,2.3301 4.31521,-6.8868 13.22024,0.1227 13.22024,0.1227 -20.5767,-28.60204 -26.21974,-8.0205 -26.21974,-8.0205 l -5.71479,-4.6112 c -4.34278,-5.2685 -9.07657,-7.1462 -13.68636,-7.0638 z m 0.19613,3.0414 c 8.85434,-0.2775 12.09207,8.1187 12.09207,8.1185 -4.06259,2.5979 -30.97801,1.9132 -30.97801,1.9132 8.07476,-7.3746 14.24813,-9.8864 18.88594,-10.0317 z m -30.29126,12.4108 c 1.93764,-0.06 3.31114,0.6622 3.31114,0.6622 l -9.81097,14.8636 c -2.36852,2.5701 -1.01554,5.4843 0.49061,7.4564 1.17703,0.9385 2.10879,1.8122 2.15837,2.281 0,0 -1.11261,-0.912 -2.15837,-2.281 -2.18871,-1.7454 -5.24878,-3.7036 -5.24878,-3.7036 1.84823,-16.2057 7.55889,-19.1634 11.258,-19.2786 z M 777.51113,963.91 c -4.33865,3.8466 -1.32447,25.8762 -1.32447,25.8764 l -9.71279,4.415 C 765.0938,974.6943 777.51113,963.91 777.51113,963.91 z m 51.65477,8.3394 c 32.05428,0 57.8845,25.4826 57.88467,56.9035 0,0.4538 -0.0143,0.8978 -0.0243,1.349 -15.73255,23.2599 -57.60304,8.702 -81.92154,-8.3883 -23.07716,-16.2181 -31.71788,1.3347 -33.8478,7.162 -5e-5,-0.041 0,-0.082 0,-0.1227 0,-31.4209 25.85483,-56.9035 57.90927,-56.9035 z m -7.01494,36.742 31.37056,23.9387 c 6.99238,-11.8657 -31.37056,-23.9387 -31.37056,-23.9387 z m 52.66038,1.9376 c -5.43786,-0.174 -7.52999,22.4672 -7.52999,22.4672 l 9.32047,-21.6087 c -0.63557,-0.5562 -1.22794,-0.8404 -1.79048,-0.8585 z m 20.55392,10.7186 c 10.9927,-0.044 18.02766,7.7261 18.02766,7.7261 l -0.17171,3.8753 c -3.59205,0 -20.87278,-7.1375 -20.87278,-7.1375 l -0.5151,-4.1942 c 1.21873,-0.1891 2.39472,-0.2652 3.53193,-0.2697 z m -98.89444,12.2636 c 4.13528,-0.1027 9.98267,3.9244 9.98267,3.9244 51.38086,20.491 78.58569,0.7113 78.58569,0.7113 -7.55613,19.0766 -81.6056,15.5462 -86.14022,14.839 -4.53451,-0.7071 -8.29969,-10.6136 -6.0336,-16.9729 0.63761,-1.7886 1.98734,-2.4616 3.60546,-2.5018 z m 119.47291,0.7359 c 0,0 7.88144,2.0141 3.4338,3.4093 l -3.4338,-3.4093 z m -20.3087,1.3735 c 6.66911,3.0311 16.04098,4.1941 16.04098,4.1941 l -2.2811,3.7282 c -5.38545,-1.4379 -10.78911,-2.3282 -14.47112,-2.8452 0.31169,-1.6687 0.53044,-3.3672 0.71124,-5.0771 z m -132.84031,4.5621 c 1.41697,0.01 2.87183,0.1326 4.39044,0.3924 l -0.63777,5.7394 c 0,0 -21.52335,9.811 -25.999,9.811 l -0.22085,-5.3225 c 0,0 8.77018,-10.6808 22.46718,-10.6203 z m 134.06676,2.9678 c 15.10736,-0.061 24.77261,10.6203 24.77261,10.6203 l -0.24523,5.3225 c -4.93736,0 -28.67259,-9.7864 -28.67259,-9.7864 l -0.71129,-5.764 c 1.67493,-0.2598 3.2936,-0.3862 4.8565,-0.3924 z m -14.42214,6.0582 c -8.44884,10.8696 -61.73491,27.4936 -63.03544,28.133 -1.30053,0.6394 -9.73734,-3.2014 -9.73734,-7.6771 0,-4.4757 4.53754,-7.6771 4.53754,-7.6771 11.04736,5.7545 68.23524,-12.7788 68.23524,-12.7788 z m -114.19953,6.6715 c 0.90489,1.9625 1.92776,3.8605 3.01688,5.7149 -12.04194,2.3374 -26.25146,6.6447 -23.03121,13.7108 l -0.22079,0.3679 -5.54315,-9.9581 c 0,0 19.00955,-2.6326 25.77827,-9.8355 z m 121.2143,1.2999 c 0.0541,0.08 0.0903,0.1661 0.14727,0.2453 -0.0754,-0.029 -0.14545,-0.07 -0.22079,-0.098 0.0243,-0.049 0.0491,-0.098 0.0738,-0.1472 z m -152.31499,0.8585 -4.26782,4.6847 c -5.54221,-1.9181 4.26782,-4.6847 4.26782,-4.6847 z m 188.0269,2.9923 c 0,0 10.79728,2.7666 4.6848,4.6848 l -4.6848,-4.6848 z m -145.74163,1.5207 c 1.79842,0.01 3.66458,0.1387 5.59218,0.417 l -0.80942,6.1809 c 0,0 -27.30764,10.4977 -32.98945,10.4977 l -0.26971,-5.7148 c 0,0 11.09054,-11.4457 28.4764,-11.3808 z m 95.09263,0.024 c -3.72613,9.8024 5.54315,36.1043 5.54315,36.1043 0,0 -4.81812,-6.8527 -8.38833,-18.7879 -3.57026,-11.9353 2.84518,-17.3164 2.84518,-17.3164 z m 24.87073,1.2509 c 8.90128,3.4957 19.89166,4.8565 19.89166,4.8565 l -7.7751,15.4032 c -0.88167,-3.1753 -2.15313,-6.3976 -3.89993,-9.5657 -2.31226,-4.1947 -5.14768,-7.8027 -8.21663,-10.694 z m -91.41355,15.1334 c 1.41691,0.01 2.87182,0.1327 4.39039,0.3924 l -0.63778,5.764 c 0,0 -21.52329,9.7864 -25.99894,9.7864 l -0.1963,-5.3224 c 0,0 8.74546,-10.6808 22.44263,-10.6204 z m 95.31337,0.7604 c 0.20336,-0.01 0.40154,-0.01 0.61318,0 0.78161,0.014 1.60835,0.1395 2.47734,0.417 3.50264,7.8904 2.33007,15.3295 2.33007,15.3295 0,0 -1.54768,-6.5943 -4.4885,-9.9336 -2.94093,-3.339 -5.69031,-4.2432 -5.69031,-4.2432 -0.36695,0.2791 1.70803,-1.4095 4.75822,-1.5697 z m -156.41111,1.9867 -5.39599,5.0036 c -7.03457,-2.0563 5.39599,-5.0036 5.39599,-5.0036 z m 100.56226,9.3204 c 0.29007,-0.01 0.58951,-0.012 0.90749,0 10.18179,0.3771 12.82785,5.2979 12.82785,5.2979 0,0 -8.30245,-1.9008 -12.82785,-0.3925 -4.52513,1.5085 -6.0336,4.1452 -6.0336,4.1452 0.36519,0.7307 -3.8654,-8.797 5.12611,-9.0506 z m -36.42309,1.8886 c 5.36003,21.0678 49.766,47.5341 49.766,47.5341 0,0 -15.29312,-3.1398 -34.43642,-16.139 -19.14325,-12.9993 -15.32958,-31.3951 -15.32958,-31.3951 z m -28.69714,3.9244 -4.26771,4.6847 c -5.54227,-1.9181 4.26771,-4.6847 4.26771,-4.6847 z"
       style="color:#000000;fill:none;stroke:#ffffff;stroke-width:1;stroke-miterlimit:4;stroke-opacity:0.88235294;stroke-dasharray:none;marker:none;visibility:visible;display:inline;overflow:visible"
       inkscape:export-filename="./path4328.png"
       inkscape:export-xdpi="90"
       inkscape:export-ydpi="90"
       inkscape:connector-curvature="0" />
  </g>
</svg>
